<?xml version="1.0" encoding="UTF-8" standalone="no"?><svg xmlns="http://www.w3.org/2000/svg" xmlns:xlink="http://www.w3.org/1999/xlink" contentScriptType="application/ecmascript" contentStyleType="text/css" height="495px" preserveAspectRatio="none" style="width:586px;height:495px;" version="1.1" viewBox="0 0 586 495" width="586px" zoomAndPan="magnify"><defs/><g><polygon fill="#000000" points="192.0132,20.4324,190.5474,22.4353,188.8136,25.3688,186.334,27.3458,183.7283,28.4269,181.6507,28.5207,178.9804,27.1687,176.4609,26.2854,174.5485,24.492,173.5453,22.4389,172.9504,20.8041,172.3676,18.6688,171.4216,16.8313,172.1486,15.0373,172.7855,13.072,175.1755,11.5177,176.8571,9.501,178.9384,8.8313,181.4127,8.2546,184.5856,8.5972,186.3235,9.4168,188.3441,9.7884,190.8009,12.3054,191.6573,14.9627,192.0294,16.7758,191.608,19.7635" style="stroke: none; stroke-width: 1.0;"/><polygon fill="#FEFECE" points="147.958,89,147.958,89.2102,157.6723,88.5857,167.3866,89.1933,177.1009,89.3997,186.8151,88.2866,196.5294,88.9223,206.2437,88.5735,215.958,89,215.9091,88.8819,217.7171,89.7112,219.4053,90.2516,221.3319,91.3672,222.9487,91.7348,224.7968,92.6612,224.7359,92.6359,225.6621,94.484,226.2349,96.1858,227.0145,97.9732,227.7159,99.7282,228.458,101.5,228.5175,101.5,228.5377,106.5,228.6532,111.5,228.6817,116.5,228.6844,121.5,228.458,126.5,228.5364,126.5325,227.8685,128.3269,227.2098,130.1251,226.0392,131.7113,225.738,133.6576,224.7968,135.3388,224.759,135.2475,223.0972,136.2355,221.1982,136.6509,219.4848,137.5144,217.8204,138.4962,215.958,139,215.958,138.9513,206.2437,139.1053,196.5294,139.3386,186.8151,139.4162,177.1009,138.9961,167.3866,139.2872,157.6723,138.4276,147.958,139,147.9943,139.0876,146.2602,138.4366,144.4792,137.6724,142.7329,136.9921,140.8253,135.9223,139.1192,135.3388,138.9183,135.2556,138.1956,133.4918,137.6366,131.7958,136.8619,130.0105,136.4001,128.3547,135.458,126.5,135.3998,126.5,135.3436,121.5,135.5341,116.5,135.2357,111.5,135.285,106.5,135.458,101.5,135.6579,101.5828,136.3244,99.7878,137.1487,98.0582,137.5556,96.1557,138.4852,94.4696,139.1192,92.6612,139.1945,92.843,140.8267,91.7835,142.6425,91.1672,144.4385,90.5033,146.2734,89.9329,147.958,89" style="stroke: #A80036; stroke-width: 1.5;"/><path d="M135.458,119.9531 L135.458,120.2334 L145.7913,119.4007 L156.1247,120.2108 L166.458,120.486 L176.7913,119.0019 L187.1247,119.8495 L197.458,119.3845 L207.7913,119.4418 L218.1247,119.8622 L228.458,119.9531 " fill="#FEFECE" style="stroke: #A80036; stroke-width: 1.5;"/><text fill="#000000" font-family="monospace" font-size="18" lengthAdjust="spacingAndGlyphs" textLength="73" x="145.458" y="110.708">Initiated</text><polygon fill="#FEFECE" points="137.958,221,137.958,221.2102,147.7358,220.5857,157.5136,221.1933,167.2913,221.3997,177.0691,220.2866,186.8469,220.9223,196.6247,220.5735,206.4024,220.6165,216.1802,220.9318,225.958,221,225.8698,220.7871,227.7964,221.9027,229.4131,222.2704,231.2361,223.1358,233.0842,224.062,234.7968,224.6612,234.7704,224.6502,235.5501,226.4376,236.2515,228.1926,237.0485,229.9872,237.7994,231.7627,238.458,233.5,238.6532,233.5,238.6817,238.5,238.6844,243.5,238.5429,248.5,238.6125,253.5,238.458,258.5,238.6743,258.5896,237.5037,260.1758,237.2025,262.1221,236.17,263.7655,235.6935,265.6392,234.7968,267.3388,234.7337,267.1864,233.0203,268.05,231.3559,269.0317,229.4873,269.5205,227.7392,270.3002,225.958,271,225.958,271.3386,216.1802,271.4162,206.4024,270.9961,196.6247,271.2872,186.8469,270.4276,177.0691,271.2844,167.2913,271.5482,157.5136,271.4445,147.7358,271.613,137.958,271,137.8964,270.8512,136.107,270.0669,134.3432,269.3442,132.6472,268.7852,130.8619,268.0105,129.1192,267.3388,129.329,267.4258,128.3331,265.5488,127.5491,263.7595,126.9928,262.0647,125.9849,260.1827,125.458,258.5,125.285,258.5,125.6743,253.5,125.6032,248.5,125.7028,243.5,125.3507,238.5,125.458,233.5,125.5563,233.5407,126.3721,231.8075,126.777,229.9042,127.6252,228.1845,128.4257,226.445,129.1192,224.6612,129.2023,224.8619,130.8864,223.9276,132.7137,223.3392,134.3518,222.2939,136.1038,221.5237,137.958,221" style="stroke: #A80036; stroke-width: 1.5;"/><path d="M125.458,251.9531 L125.458,252.2334 L135.7307,251.4007 L146.0035,252.2108 L156.2762,252.486 L166.5489,251.0019 L176.8216,251.8495 L187.0944,251.3845 L197.3671,251.4418 L207.6398,251.8622 L217.9125,251.0313 L228.1853,252.6913 L238.458,251.9531 " fill="#FEFECE" style="stroke: #A80036; stroke-width: 1.5;"/><text fill="#000000" font-family="monospace" font-size="18" lengthAdjust="spacingAndGlyphs" textLength="93" x="135.458" y="242.708">Processing</text><polygon fill="#FEFECE" points="29.9583,353,29.9583,353.2102,39.4583,352.5857,48.9583,353.1933,58.4583,353.3997,67.9583,352.2866,77.4583,352.9223,86.9583,352.5735,96.4583,352.6165,105.9583,353,105.9496,352.979,107.6379,353.5193,109.5645,354.635,111.1812,355.0026,113.0041,355.868,114.7971,356.6612,114.9302,356.7163,115.503,358.418,116.2826,360.2054,116.984,361.9604,117.781,363.755,118.4583,365.5,118.538,365.5,118.6535,370.5,118.682,375.5,118.6847,380.5,118.5432,385.5,118.4583,390.5,118.6011,390.5591,117.9423,392.3573,116.7717,393.9435,116.4706,395.8899,115.4381,397.5332,114.7971,399.3388,114.8652,399.5032,112.9662,399.9186,111.2529,400.7822,109.5884,401.7639,107.7199,402.2528,105.9583,403,105.9583,403.1053,96.4583,403.3386,86.9583,403.4162,77.4583,402.9961,67.9583,403.2872,58.4583,402.4276,48.9583,403.2844,39.4583,403.5482,29.9583,403,30.015,403.1369,28.2687,402.4566,26.3611,401.3868,24.5718,400.6025,22.808,399.8797,21.1195,399.3388,21.1013,399.3313,20.3267,397.546,19.8648,395.8902,18.869,394.0133,18.0849,392.224,17.4583,390.5,17.5344,390.5,17.236,385.5,17.2853,380.5,17.6746,375.5,17.6035,370.5,17.4583,365.5,17.6845,365.5937,18.0914,363.6912,19.0211,362.0052,19.8368,360.272,20.2418,358.3687,21.1195,356.6612,21.1072,356.6316,22.9033,355.9677,24.7381,355.3974,26.4222,354.4632,28.2495,353.8747,29.9583,353" style="stroke: #A80036; stroke-width: 1.5;"/><path d="M17.4583,383.9531 L17.4583,384.2334 L27.5583,383.4007 L37.6583,384.2108 L47.7583,384.486 L57.8583,383.0019 L67.9583,383.8495 L78.0583,383.3845 L88.1583,383.4418 L98.2583,383.8622 L108.3583,383.0313 L118.4583,383.9531 " fill="#FEFECE" style="stroke: #A80036; stroke-width: 1.5;"/><text fill="#000000" font-family="monospace" font-size="18" lengthAdjust="spacingAndGlyphs" textLength="81" x="27.4583" y="374.708">Allocated</text><polygon fill="#FEFECE" points="273.458,353,273.458,353.2102,282.858,352.5857,292.258,353.1933,301.658,353.3997,311.058,352.2866,320.458,353,320.4481,352.9761,322.1714,353.6009,323.9446,354.3464,325.7526,355.1757,327.4409,355.716,329.2968,356.6612,329.4673,356.7318,329.835,358.3485,330.7004,360.1715,331.6266,362.0196,332.1994,363.7213,332.958,365.5,332.9807,365.5,332.9474,370.5,333.0175,375.5,333.0377,380.5,333.1532,385.5,332.958,390.5,333.1647,390.5856,332.435,392.3544,331.5719,394.068,330.9041,395.8624,330.2453,397.6606,329.2968,399.3388,329.2048,399.1167,327.6156,400.28,325.7235,400.712,324.0616,401.6999,322.1626,402.1153,320.458,403,320.458,402.9315,311.058,403.7416,301.658,402.9513,292.258,403.1053,282.858,403.3386,273.458,403,273.5111,403.1282,271.6897,402.2666,269.9591,401.624,268.0817,400.627,266.4232,400.1586,264.6192,399.3388,264.788,399.4088,264.0238,397.6278,263.3435,395.8815,262.2737,393.9739,261.4894,392.1846,260.958,390.5,260.7509,390.5,260.9384,385.5,260.8925,380.5,261.1851,375.5,260.8998,370.5,260.958,365.5,260.8524,365.4562,261.7605,363.7614,262.2171,361.8794,262.9948,360.1305,264.0868,358.5117,264.6192,356.6612,264.6747,356.7953,266.4806,356.1551,268.1137,355.0976,269.9632,354.5628,271.7655,353.9141,273.458,353" style="stroke: #A80036; stroke-width: 1.5;"/><path d="M260.958,383.9531 L260.958,384.2334 L271.2437,383.4007 L281.5294,384.2108 L291.8151,384.486 L302.1009,383.0019 L312.3866,383.8495 L322.6723,383.3845 L332.958,383.9531 " fill="#FEFECE" style="stroke: #A80036; stroke-width: 1.5;"/><text fill="#000000" font-family="monospace" font-size="18" lengthAdjust="spacingAndGlyphs" textLength="52" x="270.958" y="374.708">Failed</text><polygon fill="none" points="216.0132,476.4324,214.5474,478.4353,212.8136,481.3688,210.334,483.3458,207.7283,484.4269,205.6507,484.5207,202.9804,483.1687,200.4609,482.2854,198.5485,480.492,197.5453,478.4389,196.9504,476.8041,196.3676,474.6688,195.4216,472.8313,196.1486,471.0373,196.7855,469.072,199.1755,467.5177,200.8571,465.501,202.9384,464.8313,205.4127,464.2546,208.5856,464.5972,210.3235,465.4168,212.3441,465.7884,214.8009,468.3054,215.6573,470.9627,216.0294,472.7758,215.608,475.7635" style="stroke: #000000; stroke-width: 1.0;"/><polygon fill="#000000" points="212.4911,475.9594,211.6116,477.1612,210.5714,478.9213,209.0836,480.1075,207.5202,480.7562,206.2736,480.8124,204.6715,480.0012,203.1597,479.4712,202.0123,478.3952,201.4104,477.1633,201.0535,476.1825,200.7038,474.9013,200.1362,473.7988,200.5723,472.7224,200.9545,471.5432,202.3885,470.6106,203.3974,469.4006,204.6462,468.9988,206.1308,468.6528,208.0346,468.8583,209.0773,469.3501,210.2897,469.573,211.7637,471.0833,212.2776,472.6776,212.5009,473.7655,212.248,475.5581" style="stroke: none; stroke-width: 1.0;"/><!--MD5=[328d32416d55319b9d658b0fb7277875]
link *start to Initiated--><path d="M181.958,28.013 L182.2382,28.013 L181.4056,37.2725 L182.2157,46.532 L182.4909,55.7915 L181.0068,65.051 L181.8544,74.3105 L181.958,83.57 " fill="none" style="stroke: #808080; stroke-width: 2.0;"/><polygon fill="#808080" points="181.958,88.84,182.022,88.8685,182.6318,86.9839,183.6169,85.2662,184.4797,83.4941,184.9407,81.5434,185.958,79.84,185.9397,79.8217,185.0575,80.5395,184.2676,81.3496,183.5419,82.2239,182.595,82.877,181.958,83.84,182.0885,83.9705,181.0094,82.8914,180.3114,82.1934,179.6598,81.5418,178.7378,80.6198,177.958,79.84,177.9788,79.8492,178.7483,81.6357,179.6124,83.4642,180.4308,85.2724,181.3364,87.1193,181.958,88.84" style="stroke: #808080; stroke-width: 2.0;"/><!--MD5=[c9874a1fb193a6d784bb868d78305037]
link Initiated to Processing--><path d="M181.958,139.147 L182.2382,139.147 L181.4056,148.7409 L182.2157,158.3347 L182.4909,167.9286 L181.0068,177.5225 L181.8544,187.1164 L181.3893,196.7103 L181.4467,206.3041 L181.958,215.898 " fill="none" style="stroke: #808080; stroke-width: 2.0;"/><polygon fill="#808080" points="181.958,220.982,182.022,221.0105,182.6318,219.1259,183.6169,217.4082,184.4797,215.6361,184.9407,213.6854,185.958,211.982,185.9397,211.9637,185.0575,212.6815,184.2676,213.4916,183.5419,214.3659,182.595,215.019,181.958,215.982,182.0885,216.1125,181.0094,215.0334,180.3114,214.3354,179.6598,213.6838,178.7378,212.7618,177.958,211.982,177.9788,211.9912,178.7483,213.7777,179.6124,215.6062,180.4308,217.4144,181.3364,219.2613,181.958,220.982" style="stroke: #808080; stroke-width: 2.0;"/><text fill="#000000" font-family="monospace" font-size="18" font-style="italic" lengthAdjust="spacingAndGlyphs" textLength="125" x="182.958" y="186.708">allocateDriver</text><!--MD5=[ee413a886dbbd5b80bab660992992036]
link Processing to Allocated--><path d="M125.148,248.466 L125.1606,248.5586 L122.1151,248.6939 L119.1436,249.3718 L116.148,249.8731 L113.0731,249.7932 L110.1079,250.5178 L110.1014,250.4838 L106.9507,250.9335 L103.8329,251.5542 L100.7381,252.2937 L97.5642,252.6236 L94.501,253.5273 L94.5634,253.7653 L91.2739,254.0829 L88.1664,255.0956 L85.0812,256.193 L81.8667,256.7971 L78.7202,257.6606 L78.7302,257.6893 L75.6031,258.7319 L72.5215,259.9049 L69.418,261.015 L66.3563,262.2451 L63.1583,263.084 L63.283,263.3549 L60.2945,264.7341 L57.2256,265.9386 L54.2744,267.3989 L51.3287,268.8711 L48.2082,269.9635 L48.0414,269.6898 L45.5762,271.9213 L42.5615,273.2517 L39.9646,275.2671 L36.9375,276.577 L34.263,278.4653 L34.2437,278.4417 L31.9624,280.7781 L29.2302,282.5646 L26.7641,284.6755 L24.3203,286.8137 L21.7153,288.7554 L21.8543,288.8775 L19.5626,291.2032 L17.5084,293.7375 L15.07,295.9342 L13.2047,298.6345 L10.9583,301 L11.186,301.0867 L10.2071,303.5295 L9.3413,306.0154 L7.9502,308.3014 L6.9441,310.7339 L6.2792,313.2963 L6.0079,313.2444 L6.7304,315.7842 L7.1472,318.2655 L8.0073,320.8317 L8.1105,323.2531 L8.6636,325.7605 L8.5343,325.6797 L10.2675,328.2426 L11.448,330.4601 L13.0215,332.9233 L14.9795,335.6268 L16.2528,337.9023 L16.3921,338.0367 L18.6746,340.3947 L20.5238,342.3344 L22.9158,344.798 L25.1895,347.1475 L27.1877,349.231 " fill="none" style="stroke: #808080; stroke-width: 2.0;"/><polygon fill="#808080" points="31.3249,352.8,31.3883,352.8299,30.3597,350.9596,29.7025,349.2644,28.9244,347.5122,27.7485,345.5724,27.1233,343.8923,27.0974,343.8904,27.0647,345.0102,27.1621,346.1396,27.3501,347.2756,27.2261,348.3886,27.5391,349.5339,27.5526,349.7179,26.3953,349.4075,25.2776,349.6345,24.1647,349.927,23.0237,349.838,21.8975,349.9497,21.9041,349.9715,23.7799,350.5096,25.6857,351.1468,27.577,351.7362,29.4959,352.4168,31.3249,352.8" style="stroke: #808080; stroke-width: 2.0;"/><text fill="#000000" font-family="monospace" font-size="18" lengthAdjust="spacingAndGlyphs" textLength="126" x="11.9583" y="318.708">Driver.accept/</text><text fill="#000000" font-family="monospace" font-size="18" font-style="italic" lengthAdjust="spacingAndGlyphs" textLength="169" x="137.9583" y="318.708">Callbacks.allocated</text><!--MD5=[f7bee9a00a478d7c6b49ac906f8ebc84]
link Processing to Failed--><path d="M238.589,255.693 L238.6156,255.7826 L240.5836,256.1233 L242.7073,256.9891 L244.7803,257.684 L246.6866,257.8166 L248.8237,258.7274 L248.8121,258.6949 L250.8235,259.2821 L252.8932,260.0334 L255.0034,260.8988 L256.9739,261.3711 L259.1401,262.3939 L259.2367,262.6202 L261.0712,263.0079 L263.1877,264.0563 L265.3387,265.1853 L267.2894,265.8454 L269.3455,266.752 L269.3594,266.779 L271.3193,267.7613 L273.3425,268.8662 L275.3351,269.912 L277.3861,271.0707 L279.247,271.8613 L279.4059,272.1137 L281.2888,273.3007 L283.0692,274.325 L284.9997,275.5875 L286.9371,276.8613 L288.6518,277.7811 L288.4548,277.5283 L290.5802,279.377 L292.057,280.3932 L294.0268,282.0423 L295.4889,283.0396 L297.3672,284.5712 L297.3458,284.5495 L299.1651,286.3499 L300.4852,287.6437 L302.0998,289.2364 L303.7392,290.8542 L305.2002,292.291 L305.3463,292.4044 L306.5504,294.0317 L308.0041,295.8528 L309.0539,297.3604 L310.7063,299.3357 L311.958,301 L312.1818,301.0962 L313.0869,303.2827 L314.1031,305.517 L314.6029,307.5293 L315.4813,309.7044 L316.695,312.0235 L316.4199,311.9997 L316.8755,314.4128 L317.0211,316.7992 L317.6165,319.2244 L317.444,321.5832 L317.7279,323.9815 L317.577,323.9597 L317.4761,326.4368 L316.7301,328.8208 L316.4429,331.2709 L316.6045,333.7859 L315.9668,336.1855 L316.1517,336.2428 L315.5496,338.6344 L314.3723,340.8478 L313.9154,343.2844 L313.3016,345.6724 L312.322,347.947 " fill="none" style="stroke: #808080; stroke-width: 2.0;"/><polygon fill="#808080" points="310.299,352.935,310.3476,352.9854,311.6207,351.468,313.179,350.2461,314.6443,348.928,315.8043,347.2934,317.3871,346.0969,317.377,346.0731,316.2897,346.4069,315.2534,346.8609,314.2524,347.3986,313.1295,347.6481,312.1774,348.3012,312.3473,348.3731,311.543,347.1774,311.2349,346.1917,310.9874,345.2315,310.3876,344.1223,309.973,343.0915,309.9958,343.0923,310.0276,345.0599,310.1629,347.0309,310.2483,349.0003,310.4289,350.9728,310.299,352.935" style="stroke: #808080; stroke-width: 2.0;"/><text fill="#000000" font-family="monospace" font-size="18" lengthAdjust="spacingAndGlyphs" textLength="120" x="317.958" y="318.708">Driver.reject/</text><text fill="#000000" font-family="monospace" font-size="18" font-style="italic" lengthAdjust="spacingAndGlyphs" textLength="137" x="437.958" y="318.708">Callbacks.failed</text><!--MD5=[30c28498d11c6b6cae89e7b6ccf56923]
link Processing to Processing--><path d="M238.698,233.626 L238.7031,233.7193 L241.4002,233.5895 L244.1271,234.0065 L246.8444,234.2455 L249.5298,233.8989 L252.2592,234.3629 L252.2521,234.3291 L254.4295,234.6389 L256.6425,235.1192 L258.8803,235.718 L261.0327,235.9085 L263.3046,236.6709 L263.4711,236.8521 L265.1458,238.3304 L267.3065,240.3378 L269.5265,242.4097 L271.4015,244.1061 L273.458,246 L273.4798,246.0211 L271.7575,247.7345 L270.1344,249.5439 L268.4634,251.307 L266.8837,253.1585 L265.0065,254.7218 L265.0815,255.0104 L263.2146,255.499 L261.2994,255.8014 L259.4549,256.3764 L257.6138,256.9641 L255.6675,257.1471 L255.6365,256.828 L253.365,257.6742 L250.9914,257.4699 L248.6954,258.0642 L246.3194,257.836 L244.009,258.282 " fill="none" style="stroke: #808080; stroke-width: 2.0;"/><polygon fill="#808080" points="238.698,258.374,238.7253,258.4385,240.4578,259.0153,242.3505,259.9703,244.191,260.8022,245.8599,261.2291,247.7664,262.2165,247.7484,262.1979,246.8538,261.3283,246.0499,260.5527,245.3091,259.8424,244.351,258.907,243.6972,258.2868,243.83,258.415,244.332,257.3271,245.2217,256.6134,246.1586,255.9454,246.8204,255.0117,247.6269,254.2177,247.6365,254.2384,245.8366,255.0393,244.0805,255.9342,242.3032,256.7838,240.5662,257.7197,238.698,258.374" style="stroke: #808080; stroke-width: 2.0;"/><text fill="#000000" font-family="monospace" font-size="18" lengthAdjust="spacingAndGlyphs" textLength="132" x="279.458" y="252.708">Driver.timeout</text><!--MD5=[6233b45b78a3a921b3f17328e9f136ac]
link Allocated to *end--><path d="M103.4967,403.2073 L103.6545,403.4389 L111.3959,408.3432 L120.0622,414.6052 L128.4273,420.4251 L135.802,424.7909 L144.4894,431.0839 L152.4378,436.292 L160.6803,441.9318 L169.1272,447.8718 L176.8696,452.7774 L186.0144,459.7419 L193.809,464.7242 " fill="none" style="stroke: #808080; stroke-width: 2.0;"/><polygon fill="#808080" points="197.98,467.5657,198.0396,467.6026,196.8252,465.8185,195.9599,464.2508,194.9809,462.6126,193.6281,460.7428,192.7928,459.1936,192.7673,459.1887,192.864,460.2786,193.089,461.3928,193.4032,462.5239,193.41,463.5968,193.8473,464.7513,193.8817,464.9326,192.6966,464.7558,191.612,465.1083,190.5396,465.5255,189.3959,465.5668,188.2897,465.8058,188.2937,465.8282,190.2258,466.1473,192.1764,466.5683,194.1181,466.9402,196.0768,467.4058,197.98,467.5657" style="stroke: #808080; stroke-width: 2.0;"/><!--MD5=[3c91aadb35076bbec70261ad1b979304]
link Failed to *end--><path d="M273.524,403.2073 L273.7253,403.4022 L265.9761,410.2097 L259.4072,418.1599 L252.4539,425.738 L244.2366,432.0924 L237.6946,440.0686 L230.2094,447.1318 L223.0996,454.5584 L216.316,462.3007 " fill="none" style="stroke: #808080; stroke-width: 2.0;"/><polygon fill="#808080" points="212.724,466.0115,212.7502,466.0765,214.4991,465.1465,216.4015,464.5974,218.254,463.9242,219.9419,462.8432,221.8576,462.3268,221.8572,462.3009,220.7241,462.203,219.5931,462.2358,218.4636,462.3593,217.329,462.17,216.2015,462.4189,216.386,462.4219,215.973,461.2842,216.0987,460.1554,216.2902,459.0275,216.0992,457.8935,216.1094,456.7628,216.1307,456.7706,215.4223,458.6088,214.8111,460.4827,214.153,462.3394,213.5844,464.2289,212.724,466.0115" style="stroke: #808080; stroke-width: 2.0;"/><!--MD5=[b2c4034e4ffe8085c7a86639e300699a]
@startuml
skinparam Shadowing false
skinparam BackgroundColor transparent
skinparam handwritten true
skinparam Default {
  FontColor Black
  FontSize  18
  FontStyle plain
  FontName monospace
}

skinparam component {
  BackgroundColor PapayaWhip
  BorderColor Gray
  ArrowThickness 2
  ArrowColor Gray
}

[*] - -> Initiated
Initiated - -> Processing : <i>allocateDriver</i>
Processing - -> Allocated : Driver.accept/<i>Callbacks.allocated</i>
Processing - -> Failed : Driver.reject/<i>Callbacks.failed</i>
Processing - -> Processing : Driver.timeout
Allocated - -> [*]
Failed - -> [*]
@enduml

PlantUML version 1.2019.11(Sun Sep 22 10:02:15 UTC 2019)
(GPL source distribution)
Java Runtime: Java(TM) SE Runtime Environment
JVM: Java HotSpot(TM) 64-Bit Server VM
Java Version: 1.7.0_25-b15
Operating System: Linux
Default Encoding: UTF-8
Language: en
Country: US
--></g></svg>