<svg xmlns="http://www.w3.org/2000/svg" version="1.1" width="50" height="274">
<path d="M 6.015625 19.498047 L 6.015625 19.981445 L 1.734863 19.981445 L 1.734863 20.013672 Q 1.691895 21.243652 2.204834 21.780762 Q 2.717773 22.317871 3.652344 22.317871 Q 4.125000 22.317871 4.640625 22.167480 Q 5.156250 22.017090 5.741699 21.710938 L 5.741699 22.693848 Q 5.177734 22.924805 4.654053 23.040283 Q 4.130371 23.155762 3.641602 23.155762 Q 2.239746 23.155762 1.450195 22.315186 Q 0.660645 21.474609 0.660645 19.997559 Q 0.660645 18.558105 1.434082 17.698730 Q 2.207520 16.839355 3.496582 16.839355 Q 4.645996 16.839355 5.309326 17.618164 Q 5.972656 18.396973 6.015625 19.498047 Z M 5.027344 19.208008 Q 4.962891 18.584961 4.573486 18.131104 Q 4.184082 17.677246 3.453613 17.677246 Q 2.739258 17.677246 2.277344 18.149902 Q 1.815430 18.622559 1.772461 19.213379 Z " fill="rgb(0, 0, 0)" fill-opacity="1.000000" />
<path d="M 3.770508 32.976074 L 3.442871 32.976074 Q 2.578125 32.976074 2.140381 33.279541 Q 1.702637 33.583008 1.702637 34.184570 Q 1.702637 34.727051 2.030273 35.027832 Q 2.357910 35.328613 2.937988 35.328613 Q 3.754395 35.328613 4.221680 34.761963 Q 4.688965 34.195312 4.694336 33.196289 L 4.694336 32.976074 Z M 5.687988 32.567871 L 5.687988 36.000000 L 4.694336 36.000000 L 4.694336 35.108398 Q 4.377441 35.645508 3.896729 35.900635 Q 3.416016 36.155762 2.728516 36.155762 Q 1.810059 36.155762 1.262207 35.637451 Q 0.714355 35.119141 0.714355 34.249023 Q 0.714355 33.244629 1.388428 32.723633 Q 2.062500 32.202637 3.367676 32.202637 L 4.694336 32.202637 L 4.694336 32.046875 Q 4.688965 31.327148 4.329102 31.002197 Q 3.969238 30.677246 3.179688 30.677246 Q 2.674805 30.677246 2.159180 30.822266 Q 1.643555 30.967285 1.154785 31.246582 L 1.154785 30.258301 Q 1.702637 30.048828 2.204834 29.944092 Q 2.707031 29.839355 3.179688 29.839355 Q 3.926270 29.839355 4.455322 30.059570 Q 4.984375 30.279785 5.312012 30.720215 Q 5.516113 30.988770 5.602051 31.383545 Q 5.687988 31.778320 5.687988 32.567871 Z " fill="rgb(0, 0, 0)" fill-opacity="1.000000" />
<path d="M 5.226074 43.193848 L 5.226074 44.160645 Q 4.801758 43.913574 4.372070 43.790039 Q 3.942383 43.666504 3.496582 43.666504 Q 2.825195 43.666504 2.494873 43.884033 Q 2.164551 44.101562 2.164551 44.547363 Q 2.164551 44.950195 2.411621 45.148926 Q 2.658691 45.347656 3.641602 45.535645 L 4.039062 45.610840 Q 4.774902 45.750488 5.153564 46.169434 Q 5.532227 46.588379 5.532227 47.259766 Q 5.532227 48.151367 4.898438 48.653564 Q 4.264648 49.155762 3.136719 49.155762 Q 2.690918 49.155762 2.202148 49.061768 Q 1.713379 48.967773 1.144043 48.779785 L 1.144043 47.759277 Q 1.697266 48.043945 2.202148 48.186279 Q 2.707031 48.328613 3.158203 48.328613 Q 3.813477 48.328613 4.173340 48.062744 Q 4.533203 47.796875 4.533203 47.318848 Q 4.533203 46.631348 3.217285 46.368164 L 3.174316 46.357422 L 2.803711 46.282227 Q 1.949707 46.115723 1.557617 45.720947 Q 1.165527 45.326172 1.165527 44.644043 Q 1.165527 43.779297 1.750977 43.309326 Q 2.336426 42.839355 3.421387 42.839355 Q 3.904785 42.839355 4.350586 42.927979 Q 4.796387 43.016602 5.226074 43.193848 Z " fill="rgb(0, 0, 0)" fill-opacity="1.000000" />
<path d="M 1.697266 56.005859 L 4.227051 56.005859 L 4.227051 61.231934 L 6.187500 61.231934 L 6.187500 62.000000 L 1.278320 62.000000 L 1.278320 61.231934 L 3.238770 61.231934 L 3.238770 56.773926 L 1.697266 56.773926 Z M 3.238770 53.669434 L 4.227051 53.669434 L 4.227051 54.915527 L 3.238770 54.915527 Z " fill="rgb(0, 0, 0)" fill-opacity="1.000000" />
<path d="M 6.015625 71.498047 L 6.015625 71.981445 L 1.734863 71.981445 L 1.734863 72.013672 Q 1.691895 73.243652 2.204834 73.780762 Q 2.717773 74.317871 3.652344 74.317871 Q 4.125000 74.317871 4.640625 74.167480 Q 5.156250 74.017090 5.741699 73.710938 L 5.741699 74.693848 Q 5.177734 74.924805 4.654053 75.040283 Q 4.130371 75.155762 3.641602 75.155762 Q 2.239746 75.155762 1.450195 74.315186 Q 0.660645 73.474609 0.660645 71.997559 Q 0.660645 70.558105 1.434082 69.698730 Q 2.207520 68.839355 3.496582 68.839355 Q 4.645996 68.839355 5.309326 69.618164 Q 5.972656 70.396973 6.015625 71.498047 Z M 5.027344 71.208008 Q 4.962891 70.584961 4.573486 70.131104 Q 4.184082 69.677246 3.453613 69.677246 Q 2.739258 69.677246 2.277344 70.149902 Q 1.815430 70.622559 1.772461 71.213379 Z " fill="rgb(0, 0, 0)" fill-opacity="1.000000" />
<path d="M 6.203613 83.225098 Q 5.886719 82.978027 5.559082 82.865234 Q 5.231445 82.752441 4.839355 82.752441 Q 3.915527 82.752441 3.426758 83.332520 Q 2.937988 83.912598 2.937988 85.008301 L 2.937988 88.000000 L 1.944336 88.000000 L 1.944336 81.984375 L 2.937988 81.984375 L 2.937988 83.160645 Q 3.185059 82.521484 3.697998 82.180420 Q 4.210938 81.839355 4.914551 81.839355 Q 5.279785 81.839355 5.596680 81.930664 Q 5.913574 82.021973 6.203613 82.215332 Z " fill="rgb(0, 0, 0)" fill-opacity="1.000000" />
<path d="M 3.297852 106.276367 L 3.297852 107.984375 L 5.542969 107.984375 L 5.542969 108.752441 L 3.297852 108.752441 L 3.297852 112.018066 Q 3.297852 112.684082 3.550293 112.947266 Q 3.802734 113.210449 4.431152 113.210449 L 5.542969 113.210449 L 5.542969 114.000000 L 4.334473 114.000000 Q 3.222656 114.000000 2.766113 113.554199 Q 2.309570 113.108398 2.309570 112.018066 L 2.309570 108.752441 L 0.703613 108.752441 L 0.703613 107.984375 L 2.309570 107.984375 L 2.309570 106.276367 Z " fill="rgb(0, 0, 0)" fill-opacity="1.000000" />
<path d="M 3.308594 121.677246 Q 2.556641 121.677246 2.169922 122.262695 Q 1.783203 122.848145 1.783203 123.997559 Q 1.783203 125.141602 2.169922 125.729736 Q 2.556641 126.317871 3.308594 126.317871 Q 4.065918 126.317871 4.452637 125.729736 Q 4.839355 125.141602 4.839355 123.997559 Q 4.839355 122.848145 4.452637 122.262695 Q 4.065918 121.677246 3.308594 121.677246 Z M 3.308594 120.839355 Q 4.560059 120.839355 5.223389 121.650391 Q 5.886719 122.461426 5.886719 123.997559 Q 5.886719 125.539062 5.226074 126.347412 Q 4.565430 127.155762 3.308594 127.155762 Q 2.057129 127.155762 1.396484 126.347412 Q 0.735840 125.539062 0.735840 123.997559 Q 0.735840 122.461426 1.396484 121.650391 Q 2.057129 120.839355 3.308594 120.839355 Z " fill="rgb(0, 0, 0)" fill-opacity="1.000000" />
<path d="M 1.697266 147.005859 L 4.227051 147.005859 L 4.227051 152.231934 L 6.187500 152.231934 L 6.187500 153.000000 L 1.278320 153.000000 L 1.278320 152.231934 L 3.238770 152.231934 L 3.238770 147.773926 L 1.697266 147.773926 Z M 3.238770 144.669434 L 4.227051 144.669434 L 4.227051 145.915527 L 3.238770 145.915527 Z " fill="rgb(0, 0, 0)" fill-opacity="1.000000" />
<path d="M 3.630859 160.596680 Q 3.813477 160.209961 4.095459 160.024658 Q 4.377441 159.839355 4.774902 159.839355 Q 5.500000 159.839355 5.798096 160.400635 Q 6.096191 160.961914 6.096191 162.514160 L 6.096191 166.000000 L 5.193848 166.000000 L 5.193848 162.557129 Q 5.193848 161.284180 5.051514 160.975342 Q 4.909180 160.666504 4.533203 160.666504 Q 4.103516 160.666504 3.945068 160.996826 Q 3.786621 161.327148 3.786621 162.557129 L 3.786621 166.000000 L 2.884277 166.000000 L 2.884277 162.557129 Q 2.884277 161.268066 2.731201 160.967285 Q 2.578125 160.666504 2.180664 160.666504 Q 1.788574 160.666504 1.635498 160.996826 Q 1.482422 161.327148 1.482422 162.557129 L 1.482422 166.000000 L 0.585449 166.000000 L 0.585449 159.984375 L 1.482422 159.984375 L 1.482422 160.500000 Q 1.659668 160.177734 1.925537 160.008545 Q 2.191406 159.839355 2.529785 159.839355 Q 2.937988 159.839355 3.209229 160.027344 Q 3.480469 160.215332 3.630859 160.596680 Z " fill="rgb(0, 0, 0)" fill-opacity="1.000000" />
<path d="M 2.014160 178.242676 L 2.014160 181.288086 L 1.020508 181.288086 L 1.020508 172.984375 L 2.014160 172.984375 L 2.014160 173.752441 Q 2.261230 173.306641 2.672119 173.072998 Q 3.083008 172.839355 3.620117 172.839355 Q 4.710449 172.839355 5.330811 173.682617 Q 5.951172 174.525879 5.951172 176.019043 Q 5.951172 177.485352 5.328125 178.320557 Q 4.705078 179.155762 3.620117 179.155762 Q 3.072266 179.155762 2.661377 178.922119 Q 2.250488 178.688477 2.014160 178.242676 Z M 4.914551 175.997559 Q 4.914551 174.848145 4.552002 174.262695 Q 4.189453 173.677246 3.475098 173.677246 Q 2.755371 173.677246 2.384766 174.265381 Q 2.014160 174.853516 2.014160 175.997559 Q 2.014160 177.136230 2.384766 177.727051 Q 2.755371 178.317871 3.475098 178.317871 Q 4.189453 178.317871 4.552002 177.732422 Q 4.914551 177.146973 4.914551 175.997559 Z " fill="rgb(0, 0, 0)" fill-opacity="1.000000" />
<path d="M 3.861816 189.824707 Q 3.861816 190.490723 4.106201 190.829102 Q 4.350586 191.167480 4.828613 191.167480 L 5.983398 191.167480 L 5.983398 192.000000 L 4.731934 192.000000 Q 3.845703 192.000000 3.359619 191.433350 Q 2.873535 190.866699 2.873535 189.824707 L 2.873535 184.383789 L 1.289062 184.383789 L 1.289062 183.610352 L 3.861816 183.610352 Z " fill="rgb(0, 0, 0)" fill-opacity="1.000000" />
<path d="M 6.015625 201.498047 L 6.015625 201.981445 L 1.734863 201.981445 L 1.734863 202.013672 Q 1.691895 203.243652 2.204834 203.780762 Q 2.717773 204.317871 3.652344 204.317871 Q 4.125000 204.317871 4.640625 204.167480 Q 5.156250 204.017090 5.741699 203.710938 L 5.741699 204.693848 Q 5.177734 204.924805 4.654053 205.040283 Q 4.130371 205.155762 3.641602 205.155762 Q 2.239746 205.155762 1.450195 204.315186 Q 0.660645 203.474609 0.660645 201.997559 Q 0.660645 200.558105 1.434082 199.698730 Q 2.207520 198.839355 3.496582 198.839355 Q 4.645996 198.839355 5.309326 199.618164 Q 5.972656 200.396973 6.015625 201.498047 Z M 5.027344 201.208008 Q 4.962891 200.584961 4.573486 200.131104 Q 4.184082 199.677246 3.453613 199.677246 Q 2.739258 199.677246 2.277344 200.149902 Q 1.815430 200.622559 1.772461 201.213379 Z " fill="rgb(0, 0, 0)" fill-opacity="1.000000" />
<path d="M 3.630859 212.596680 Q 3.813477 212.209961 4.095459 212.024658 Q 4.377441 211.839355 4.774902 211.839355 Q 5.500000 211.839355 5.798096 212.400635 Q 6.096191 212.961914 6.096191 214.514160 L 6.096191 218.000000 L 5.193848 218.000000 L 5.193848 214.557129 Q 5.193848 213.284180 5.051514 212.975342 Q 4.909180 212.666504 4.533203 212.666504 Q 4.103516 212.666504 3.945068 212.996826 Q 3.786621 213.327148 3.786621 214.557129 L 3.786621 218.000000 L 2.884277 218.000000 L 2.884277 214.557129 Q 2.884277 213.268066 2.731201 212.967285 Q 2.578125 212.666504 2.180664 212.666504 Q 1.788574 212.666504 1.635498 212.996826 Q 1.482422 213.327148 1.482422 214.557129 L 1.482422 218.000000 L 0.585449 218.000000 L 0.585449 211.984375 L 1.482422 211.984375 L 1.482422 212.500000 Q 1.659668 212.177734 1.925537 212.008545 Q 2.191406 211.839355 2.529785 211.839355 Q 2.937988 211.839355 3.209229 212.027344 Q 3.480469 212.215332 3.630859 212.596680 Z " fill="rgb(0, 0, 0)" fill-opacity="1.000000" />
<path d="M 6.015625 227.498047 L 6.015625 227.981445 L 1.734863 227.981445 L 1.734863 228.013672 Q 1.691895 229.243652 2.204834 229.780762 Q 2.717773 230.317871 3.652344 230.317871 Q 4.125000 230.317871 4.640625 230.167480 Q 5.156250 230.017090 5.741699 229.710938 L 5.741699 230.693848 Q 5.177734 230.924805 4.654053 231.040283 Q 4.130371 231.155762 3.641602 231.155762 Q 2.239746 231.155762 1.450195 230.315186 Q 0.660645 229.474609 0.660645 227.997559 Q 0.660645 226.558105 1.434082 225.698730 Q 2.207520 224.839355 3.496582 224.839355 Q 4.645996 224.839355 5.309326 225.618164 Q 5.972656 226.396973 6.015625 227.498047 Z M 5.027344 227.208008 Q 4.962891 226.584961 4.573486 226.131104 Q 4.184082 225.677246 3.453613 225.677246 Q 2.739258 225.677246 2.277344 226.149902 Q 1.815430 226.622559 1.772461 227.213379 Z " fill="rgb(0, 0, 0)" fill-opacity="1.000000" />
<path d="M 5.645020 240.272461 L 5.645020 244.000000 L 4.651367 244.000000 L 4.651367 240.272461 Q 4.651367 239.461426 4.366699 239.080078 Q 4.082031 238.698730 3.475098 238.698730 Q 2.782227 238.698730 2.408936 239.190186 Q 2.035645 239.681641 2.035645 240.600098 L 2.035645 244.000000 L 1.047363 244.000000 L 1.047363 237.984375 L 2.035645 237.984375 L 2.035645 238.886719 Q 2.298828 238.371094 2.750000 238.105225 Q 3.201172 237.839355 3.818848 237.839355 Q 4.737305 237.839355 5.191162 238.443604 Q 5.645020 239.047852 5.645020 240.272461 Z " fill="rgb(0, 0, 0)" fill-opacity="1.000000" />
<path d="M 3.297852 249.276367 L 3.297852 250.984375 L 5.542969 250.984375 L 5.542969 251.752441 L 3.297852 251.752441 L 3.297852 255.018066 Q 3.297852 255.684082 3.550293 255.947266 Q 3.802734 256.210449 4.431152 256.210449 L 5.542969 256.210449 L 5.542969 257.000000 L 4.334473 257.000000 Q 3.222656 257.000000 2.766113 256.554199 Q 2.309570 256.108398 2.309570 255.018066 L 2.309570 251.752441 L 0.703613 251.752441 L 0.703613 250.984375 L 2.309570 250.984375 L 2.309570 249.276367 Z " fill="rgb(0, 0, 0)" fill-opacity="1.000000" />
<path d="M 16.449219 273.319336 L 16.449219 259.300781 L 18.167969 259.300781 L 18.167969 273.319336 Z " fill="rgb(0, 0, 0)" fill-opacity="1.000000" />
<path d="M 31.308594 270.418945 L 28.032227 263.866211 L 34.590332 263.866211 Z " fill="rgb(0, 0, 0)" fill-opacity="1.000000" />
<path d="M 16.449219 260.319336 L 16.449219 246.300781 L 18.167969 246.300781 L 18.167969 260.319336 Z " fill="rgb(0, 0, 0)" fill-opacity="1.000000" />
<path d="M 30.449219 260.319336 L 30.449219 246.300781 L 32.167969 246.300781 L 32.167969 260.319336 Z " fill="rgb(0, 0, 0)" fill-opacity="1.000000" />
<path d="M 48.015625 253.498047 L 48.015625 253.981445 L 43.734863 253.981445 L 43.734863 254.013672 Q 43.691895 255.243652 44.204834 255.780762 Q 44.717773 256.317871 45.652344 256.317871 Q 46.125000 256.317871 46.640625 256.167480 Q 47.156250 256.017090 47.741699 255.710938 L 47.741699 256.693848 Q 47.177734 256.924805 46.654053 257.040283 Q 46.130371 257.155762 45.641602 257.155762 Q 44.239746 257.155762 43.450195 256.315186 Q 42.660645 255.474609 42.660645 253.997559 Q 42.660645 252.558105 43.434082 251.698730 Q 44.207520 250.839355 45.496582 250.839355 Q 46.645996 250.839355 47.309326 251.618164 Q 47.972656 252.396973 48.015625 253.498047 Z M 47.027344 253.208008 Q 46.962891 252.584961 46.573486 252.131104 Q 46.184082 251.677246 45.453613 251.677246 Q 44.739258 251.677246 44.277344 252.149902 Q 43.815430 252.622559 43.772461 253.213379 Z " fill="rgb(0, 0, 0)" fill-opacity="1.000000" />
<path d="M 16.449219 247.319336 L 16.449219 233.300781 L 18.167969 233.300781 L 18.167969 247.319336 Z " fill="rgb(0, 0, 0)" fill-opacity="1.000000" />
<path d="M 30.449219 247.319336 L 30.449219 233.300781 L 32.167969 233.300781 L 32.167969 247.319336 Z " fill="rgb(0, 0, 0)" fill-opacity="1.000000" />
<path d="M 48.203613 239.225098 Q 47.886719 238.978027 47.559082 238.865234 Q 47.231445 238.752441 46.839355 238.752441 Q 45.915527 238.752441 45.426758 239.332520 Q 44.937988 239.912598 44.937988 241.008301 L 44.937988 244.000000 L 43.944336 244.000000 L 43.944336 237.984375 L 44.937988 237.984375 L 44.937988 239.160645 Q 45.185059 238.521484 45.697998 238.180420 Q 46.210938 237.839355 46.914551 237.839355 Q 47.279785 237.839355 47.596680 237.930664 Q 47.913574 238.021973 48.203613 238.215332 Z " fill="rgb(0, 0, 0)" fill-opacity="1.000000" />
<path d="M 16.449219 234.319336 L 16.449219 220.300781 L 18.167969 220.300781 L 18.167969 234.319336 Z " fill="rgb(0, 0, 0)" fill-opacity="1.000000" />
<path d="M 30.449219 234.319336 L 30.449219 220.300781 L 32.167969 220.300781 L 32.167969 234.319336 Z " fill="rgb(0, 0, 0)" fill-opacity="1.000000" />
<path d="M 48.015625 227.498047 L 48.015625 227.981445 L 43.734863 227.981445 L 43.734863 228.013672 Q 43.691895 229.243652 44.204834 229.780762 Q 44.717773 230.317871 45.652344 230.317871 Q 46.125000 230.317871 46.640625 230.167480 Q 47.156250 230.017090 47.741699 229.710938 L 47.741699 230.693848 Q 47.177734 230.924805 46.654053 231.040283 Q 46.130371 231.155762 45.641602 231.155762 Q 44.239746 231.155762 43.450195 230.315186 Q 42.660645 229.474609 42.660645 227.997559 Q 42.660645 226.558105 43.434082 225.698730 Q 44.207520 224.839355 45.496582 224.839355 Q 46.645996 224.839355 47.309326 225.618164 Q 47.972656 226.396973 48.015625 227.498047 Z M 47.027344 227.208008 Q 46.962891 226.584961 46.573486 226.131104 Q 46.184082 225.677246 45.453613 225.677246 Q 44.739258 225.677246 44.277344 226.149902 Q 43.815430 226.622559 43.772461 227.213379 Z " fill="rgb(0, 0, 0)" fill-opacity="1.000000" />
<path d="M 16.449219 221.319336 L 16.449219 207.300781 L 18.167969 207.300781 L 18.167969 221.319336 Z " fill="rgb(0, 0, 0)" fill-opacity="1.000000" />
<path d="M 30.449219 221.319336 L 30.449219 207.300781 L 32.167969 207.300781 L 32.167969 221.319336 Z " fill="rgb(0, 0, 0)" fill-opacity="1.000000" />
<path d="M 47.645020 214.272461 L 47.645020 218.000000 L 46.651367 218.000000 L 46.651367 214.272461 Q 46.651367 213.461426 46.366699 213.080078 Q 46.082031 212.698730 45.475098 212.698730 Q 44.782227 212.698730 44.408936 213.190186 Q 44.035645 213.681641 44.035645 214.600098 L 44.035645 218.000000 L 43.047363 218.000000 L 43.047363 209.642578 L 44.035645 209.642578 L 44.035645 212.886719 Q 44.298828 212.371094 44.750000 212.105225 Q 45.201172 211.839355 45.818848 211.839355 Q 46.737305 211.839355 47.191162 212.443604 Q 47.645020 213.047852 47.645020 214.272461 Z " fill="rgb(0, 0, 0)" fill-opacity="1.000000" />
<path d="M 16.449219 208.319336 L 16.449219 194.300781 L 18.167969 194.300781 L 18.167969 208.319336 Z " fill="rgb(0, 0, 0)" fill-opacity="1.000000" />
<path d="M 30.449219 208.319336 L 30.449219 194.300781 L 32.167969 194.300781 L 32.167969 208.319336 Z " fill="rgb(0, 0, 0)" fill-opacity="1.000000" />
<path d="M 16.449219 195.319336 L 16.449219 181.300781 L 18.167969 181.300781 L 18.167969 195.319336 Z " fill="rgb(0, 0, 0)" fill-opacity="1.000000" />
<path d="M 30.449219 195.319336 L 30.449219 181.300781 L 32.167969 181.300781 L 32.167969 195.319336 Z " fill="rgb(0, 0, 0)" fill-opacity="1.000000" />
<path d="M 46.608398 186.752441 L 46.608398 183.642578 L 47.596680 183.642578 L 47.596680 192.000000 L 46.608398 192.000000 L 46.608398 191.242676 Q 46.361328 191.688477 45.950439 191.922119 Q 45.539551 192.155762 45.002441 192.155762 Q 43.912109 192.155762 43.286377 191.309814 Q 42.660645 190.463867 42.660645 188.976074 Q 42.660645 187.509766 43.289062 186.674561 Q 43.917480 185.839355 45.002441 185.839355 Q 45.544922 185.839355 45.958496 186.072998 Q 46.372070 186.306641 46.608398 186.752441 Z M 43.702637 188.997559 Q 43.702637 190.146973 44.067871 190.732422 Q 44.433105 191.317871 45.147461 191.317871 Q 45.861816 191.317871 46.235107 190.727051 Q 46.608398 190.136230 46.608398 188.997559 Q 46.608398 187.853516 46.235107 187.265381 Q 45.861816 186.677246 45.147461 186.677246 Q 44.433105 186.677246 44.067871 187.262695 Q 43.702637 187.848145 43.702637 188.997559 Z " fill="rgb(0, 0, 0)" fill-opacity="1.000000" />
<path d="M 16.449219 182.319336 L 16.449219 168.300781 L 18.167969 168.300781 L 18.167969 182.319336 Z " fill="rgb(0, 0, 0)" fill-opacity="1.000000" />
<path d="M 30.449219 182.319336 L 30.449219 168.300781 L 32.167969 168.300781 L 32.167969 182.319336 Z " fill="rgb(0, 0, 0)" fill-opacity="1.000000" />
<path d="M 48.015625 175.498047 L 48.015625 175.981445 L 43.734863 175.981445 L 43.734863 176.013672 Q 43.691895 177.243652 44.204834 177.780762 Q 44.717773 178.317871 45.652344 178.317871 Q 46.125000 178.317871 46.640625 178.167480 Q 47.156250 178.017090 47.741699 177.710938 L 47.741699 178.693848 Q 47.177734 178.924805 46.654053 179.040283 Q 46.130371 179.155762 45.641602 179.155762 Q 44.239746 179.155762 43.450195 178.315186 Q 42.660645 177.474609 42.660645 175.997559 Q 42.660645 174.558105 43.434082 173.698730 Q 44.207520 172.839355 45.496582 172.839355 Q 46.645996 172.839355 47.309326 173.618164 Q 47.972656 174.396973 48.015625 175.498047 Z M 47.027344 175.208008 Q 46.962891 174.584961 46.573486 174.131104 Q 46.184082 173.677246 45.453613 173.677246 Q 44.739258 173.677246 44.277344 174.149902 Q 43.815430 174.622559 43.772461 175.213379 Z " fill="rgb(0, 0, 0)" fill-opacity="1.000000" />
<path d="M 16.449219 169.319336 L 16.449219 155.300781 L 18.167969 155.300781 L 18.167969 169.319336 Z " fill="rgb(0, 0, 0)" fill-opacity="1.000000" />
<path d="M 30.449219 169.319336 L 30.449219 155.300781 L 32.167969 155.300781 L 32.167969 169.319336 Z " fill="rgb(0, 0, 0)" fill-opacity="1.000000" />
<path d="M 47.645020 162.272461 L 47.645020 166.000000 L 46.651367 166.000000 L 46.651367 162.272461 Q 46.651367 161.461426 46.366699 161.080078 Q 46.082031 160.698730 45.475098 160.698730 Q 44.782227 160.698730 44.408936 161.190186 Q 44.035645 161.681641 44.035645 162.600098 L 44.035645 166.000000 L 43.047363 166.000000 L 43.047363 159.984375 L 44.035645 159.984375 L 44.035645 160.886719 Q 44.298828 160.371094 44.750000 160.105225 Q 45.201172 159.839355 45.818848 159.839355 Q 46.737305 159.839355 47.191162 160.443604 Q 47.645020 161.047852 47.645020 162.272461 Z " fill="rgb(0, 0, 0)" fill-opacity="1.000000" />
<path d="M 16.449219 156.319336 L 16.449219 142.300781 L 18.167969 142.300781 L 18.167969 156.319336 Z " fill="rgb(0, 0, 0)" fill-opacity="1.000000" />
<path d="M 30.449219 156.319336 L 30.449219 142.300781 L 32.167969 142.300781 L 32.167969 156.319336 Z " fill="rgb(0, 0, 0)" fill-opacity="1.000000" />
<path d="M 43.697266 147.005859 L 46.227051 147.005859 L 46.227051 152.231934 L 48.187500 152.231934 L 48.187500 153.000000 L 43.278320 153.000000 L 43.278320 152.231934 L 45.238770 152.231934 L 45.238770 147.773926 L 43.697266 147.773926 Z M 45.238770 144.669434 L 46.227051 144.669434 L 46.227051 145.915527 L 45.238770 145.915527 Z " fill="rgb(0, 0, 0)" fill-opacity="1.000000" />
<path d="M 16.449219 143.319336 L 16.449219 129.300781 L 18.167969 129.300781 L 18.167969 143.319336 Z " fill="rgb(0, 0, 0)" fill-opacity="1.000000" />
<path d="M 30.449219 143.319336 L 30.449219 129.300781 L 32.167969 129.300781 L 32.167969 143.319336 Z " fill="rgb(0, 0, 0)" fill-opacity="1.000000" />
<path d="M 45.770508 136.976074 L 45.442871 136.976074 Q 44.578125 136.976074 44.140381 137.279541 Q 43.702637 137.583008 43.702637 138.184570 Q 43.702637 138.727051 44.030273 139.027832 Q 44.357910 139.328613 44.937988 139.328613 Q 45.754395 139.328613 46.221680 138.761963 Q 46.688965 138.195312 46.694336 137.196289 L 46.694336 136.976074 Z M 47.687988 136.567871 L 47.687988 140.000000 L 46.694336 140.000000 L 46.694336 139.108398 Q 46.377441 139.645508 45.896729 139.900635 Q 45.416016 140.155762 44.728516 140.155762 Q 43.810059 140.155762 43.262207 139.637451 Q 42.714355 139.119141 42.714355 138.249023 Q 42.714355 137.244629 43.388428 136.723633 Q 44.062500 136.202637 45.367676 136.202637 L 46.694336 136.202637 L 46.694336 136.046875 Q 46.688965 135.327148 46.329102 135.002197 Q 45.969238 134.677246 45.179688 134.677246 Q 44.674805 134.677246 44.159180 134.822266 Q 43.643555 134.967285 43.154785 135.246582 L 43.154785 134.258301 Q 43.702637 134.048828 44.204834 133.944092 Q 44.707031 133.839355 45.179688 133.839355 Q 45.926270 133.839355 46.455322 134.059570 Q 46.984375 134.279785 47.312012 134.720215 Q 47.516113 134.988770 47.602051 135.383545 Q 47.687988 135.778320 47.687988 136.567871 Z " fill="rgb(0, 0, 0)" fill-opacity="1.000000" />
<path d="M 16.449219 130.319336 L 16.449219 116.300781 L 18.167969 116.300781 L 18.167969 130.319336 Z " fill="rgb(0, 0, 0)" fill-opacity="1.000000" />
<path d="M 30.449219 130.319336 L 30.449219 116.300781 L 32.167969 116.300781 L 32.167969 130.319336 Z " fill="rgb(0, 0, 0)" fill-opacity="1.000000" />
<path d="M 45.861816 124.824707 Q 45.861816 125.490723 46.106201 125.829102 Q 46.350586 126.167480 46.828613 126.167480 L 47.983398 126.167480 L 47.983398 127.000000 L 46.731934 127.000000 Q 45.845703 127.000000 45.359619 126.433350 Q 44.873535 125.866699 44.873535 124.824707 L 44.873535 119.383789 L 43.289062 119.383789 L 43.289062 118.610352 L 45.861816 118.610352 Z " fill="rgb(0, 0, 0)" fill-opacity="1.000000" />
<path d="M 16.449219 117.319336 L 16.449219 103.300781 L 18.167969 103.300781 L 18.167969 117.319336 Z " fill="rgb(0, 0, 0)" fill-opacity="1.000000" />
<path d="M 30.449219 117.319336 L 30.449219 103.300781 L 32.167969 103.300781 L 32.167969 117.319336 Z " fill="rgb(0, 0, 0)" fill-opacity="1.000000" />
<path d="M 44.014160 113.242676 L 44.014160 116.288086 L 43.020508 116.288086 L 43.020508 107.984375 L 44.014160 107.984375 L 44.014160 108.752441 Q 44.261230 108.306641 44.672119 108.072998 Q 45.083008 107.839355 45.620117 107.839355 Q 46.710449 107.839355 47.330811 108.682617 Q 47.951172 109.525879 47.951172 111.019043 Q 47.951172 112.485352 47.328125 113.320557 Q 46.705078 114.155762 45.620117 114.155762 Q 45.072266 114.155762 44.661377 113.922119 Q 44.250488 113.688477 44.014160 113.242676 Z M 46.914551 110.997559 Q 46.914551 109.848145 46.552002 109.262695 Q 46.189453 108.677246 45.475098 108.677246 Q 44.755371 108.677246 44.384766 109.265381 Q 44.014160 109.853516 44.014160 110.997559 Q 44.014160 112.136230 44.384766 112.727051 Q 44.755371 113.317871 45.475098 113.317871 Q 46.189453 113.317871 46.552002 112.732422 Q 46.914551 112.146973 46.914551 110.997559 Z " fill="rgb(0, 0, 0)" fill-opacity="1.000000" />
<path d="M 16.449219 104.319336 L 16.449219 90.300781 L 18.167969 90.300781 L 18.167969 104.319336 Z " fill="rgb(0, 0, 0)" fill-opacity="1.000000" />
<path d="M 30.449219 104.319336 L 30.449219 90.300781 L 32.167969 90.300781 L 32.167969 104.319336 Z " fill="rgb(0, 0, 0)" fill-opacity="1.000000" />
<path d="M 48.004883 94.984375 L 45.851074 97.863281 L 48.214355 101.000000 L 47.070312 101.000000 L 45.308594 98.588379 L 43.552246 101.000000 L 42.408203 101.000000 L 44.771484 97.863281 L 42.617676 94.984375 L 43.713379 94.984375 L 45.308594 97.159668 L 46.893066 94.984375 Z " fill="rgb(0, 0, 0)" fill-opacity="1.000000" />
<path d="M 16.449219 91.319336 L 16.449219 77.300781 L 18.167969 77.300781 L 18.167969 91.319336 Z " fill="rgb(0, 0, 0)" fill-opacity="1.000000" />
<path d="M 30.449219 91.319336 L 30.449219 77.300781 L 32.167969 77.300781 L 32.167969 91.319336 Z " fill="rgb(0, 0, 0)" fill-opacity="1.000000" />
<path d="M 48.015625 84.498047 L 48.015625 84.981445 L 43.734863 84.981445 L 43.734863 85.013672 Q 43.691895 86.243652 44.204834 86.780762 Q 44.717773 87.317871 45.652344 87.317871 Q 46.125000 87.317871 46.640625 87.167480 Q 47.156250 87.017090 47.741699 86.710938 L 47.741699 87.693848 Q 47.177734 87.924805 46.654053 88.040283 Q 46.130371 88.155762 45.641602 88.155762 Q 44.239746 88.155762 43.450195 87.315186 Q 42.660645 86.474609 42.660645 84.997559 Q 42.660645 83.558105 43.434082 82.698730 Q 44.207520 81.839355 45.496582 81.839355 Q 46.645996 81.839355 47.309326 82.618164 Q 47.972656 83.396973 48.015625 84.498047 Z M 47.027344 84.208008 Q 46.962891 83.584961 46.573486 83.131104 Q 46.184082 82.677246 45.453613 82.677246 Q 44.739258 82.677246 44.277344 83.149902 Q 43.815430 83.622559 43.772461 84.213379 Z " fill="rgb(0, 0, 0)" fill-opacity="1.000000" />
<path d="M 16.449219 78.319336 L 16.449219 64.300781 L 18.167969 64.300781 L 18.167969 78.319336 Z " fill="rgb(0, 0, 0)" fill-opacity="1.000000" />
<path d="M 30.449219 78.319336 L 30.449219 64.300781 L 32.167969 64.300781 L 32.167969 78.319336 Z " fill="rgb(0, 0, 0)" fill-opacity="1.000000" />
<path d="M 16.449219 65.319336 L 16.449219 51.300781 L 18.167969 51.300781 L 18.167969 65.319336 Z " fill="rgb(0, 0, 0)" fill-opacity="1.000000" />
<path d="M 30.449219 65.319336 L 30.449219 51.300781 L 32.167969 51.300781 L 32.167969 65.319336 Z " fill="rgb(0, 0, 0)" fill-opacity="1.000000" />
<path d="M 47.226074 56.193848 L 47.226074 57.160645 Q 46.801758 56.913574 46.372070 56.790039 Q 45.942383 56.666504 45.496582 56.666504 Q 44.825195 56.666504 44.494873 56.884033 Q 44.164551 57.101562 44.164551 57.547363 Q 44.164551 57.950195 44.411621 58.148926 Q 44.658691 58.347656 45.641602 58.535645 L 46.039062 58.610840 Q 46.774902 58.750488 47.153564 59.169434 Q 47.532227 59.588379 47.532227 60.259766 Q 47.532227 61.151367 46.898438 61.653564 Q 46.264648 62.155762 45.136719 62.155762 Q 44.690918 62.155762 44.202148 62.061768 Q 43.713379 61.967773 43.144043 61.779785 L 43.144043 60.759277 Q 43.697266 61.043945 44.202148 61.186279 Q 44.707031 61.328613 45.158203 61.328613 Q 45.813477 61.328613 46.173340 61.062744 Q 46.533203 60.796875 46.533203 60.318848 Q 46.533203 59.631348 45.217285 59.368164 L 45.174316 59.357422 L 44.803711 59.282227 Q 43.949707 59.115723 43.557617 58.720947 Q 43.165527 58.326172 43.165527 57.644043 Q 43.165527 56.779297 43.750977 56.309326 Q 44.336426 55.839355 45.421387 55.839355 Q 45.904785 55.839355 46.350586 55.927979 Q 46.796387 56.016602 47.226074 56.193848 Z " fill="rgb(0, 0, 0)" fill-opacity="1.000000" />
<path d="M 16.449219 52.319336 L 16.449219 38.300781 L 18.167969 38.300781 L 18.167969 52.319336 Z " fill="rgb(0, 0, 0)" fill-opacity="1.000000" />
<path d="M 30.449219 52.319336 L 30.449219 38.300781 L 32.167969 38.300781 L 32.167969 52.319336 Z " fill="rgb(0, 0, 0)" fill-opacity="1.000000" />
<path d="M 47.226074 43.193848 L 47.226074 44.160645 Q 46.801758 43.913574 46.372070 43.790039 Q 45.942383 43.666504 45.496582 43.666504 Q 44.825195 43.666504 44.494873 43.884033 Q 44.164551 44.101562 44.164551 44.547363 Q 44.164551 44.950195 44.411621 45.148926 Q 44.658691 45.347656 45.641602 45.535645 L 46.039062 45.610840 Q 46.774902 45.750488 47.153564 46.169434 Q 47.532227 46.588379 47.532227 47.259766 Q 47.532227 48.151367 46.898438 48.653564 Q 46.264648 49.155762 45.136719 49.155762 Q 44.690918 49.155762 44.202148 49.061768 Q 43.713379 48.967773 43.144043 48.779785 L 43.144043 47.759277 Q 43.697266 48.043945 44.202148 48.186279 Q 44.707031 48.328613 45.158203 48.328613 Q 45.813477 48.328613 46.173340 48.062744 Q 46.533203 47.796875 46.533203 47.318848 Q 46.533203 46.631348 45.217285 46.368164 L 45.174316 46.357422 L 44.803711 46.282227 Q 43.949707 46.115723 43.557617 45.720947 Q 43.165527 45.326172 43.165527 44.644043 Q 43.165527 43.779297 43.750977 43.309326 Q 44.336426 42.839355 45.421387 42.839355 Q 45.904785 42.839355 46.350586 42.927979 Q 46.796387 43.016602 47.226074 43.193848 Z " fill="rgb(0, 0, 0)" fill-opacity="1.000000" />
<path d="M 16.449219 39.319336 L 16.449219 25.300781 L 18.167969 25.300781 L 18.167969 39.319336 Z " fill="rgb(0, 0, 0)" fill-opacity="1.000000" />
<path d="M 30.449219 39.319336 L 30.449219 25.300781 L 32.167969 25.300781 L 32.167969 39.319336 Z " fill="rgb(0, 0, 0)" fill-opacity="1.000000" />
<path d="M 48.015625 32.498047 L 48.015625 32.981445 L 43.734863 32.981445 L 43.734863 33.013672 Q 43.691895 34.243652 44.204834 34.780762 Q 44.717773 35.317871 45.652344 35.317871 Q 46.125000 35.317871 46.640625 35.167480 Q 47.156250 35.017090 47.741699 34.710938 L 47.741699 35.693848 Q 47.177734 35.924805 46.654053 36.040283 Q 46.130371 36.155762 45.641602 36.155762 Q 44.239746 36.155762 43.450195 35.315186 Q 42.660645 34.474609 42.660645 32.997559 Q 42.660645 31.558105 43.434082 30.698730 Q 44.207520 29.839355 45.496582 29.839355 Q 46.645996 29.839355 47.309326 30.618164 Q 47.972656 31.396973 48.015625 32.498047 Z M 47.027344 32.208008 Q 46.962891 31.584961 46.573486 31.131104 Q 46.184082 30.677246 45.453613 30.677246 Q 44.739258 30.677246 44.277344 31.149902 Q 43.815430 31.622559 43.772461 32.213379 Z " fill="rgb(0, 0, 0)" fill-opacity="1.000000" />
<path d="M 16.449219 26.319336 L 16.449219 12.300781 L 18.167969 12.300781 L 18.167969 26.319336 Z " fill="rgb(0, 0, 0)" fill-opacity="1.000000" />
<path d="M 30.449219 26.319336 L 30.449219 12.300781 L 32.167969 12.300781 L 32.167969 26.319336 Z " fill="rgb(0, 0, 0)" fill-opacity="1.000000" />
<path d="M 45.861816 20.824707 Q 45.861816 21.490723 46.106201 21.829102 Q 46.350586 22.167480 46.828613 22.167480 L 47.983398 22.167480 L 47.983398 23.000000 L 46.731934 23.000000 Q 45.845703 23.000000 45.359619 22.433350 Q 44.873535 21.866699 44.873535 20.824707 L 44.873535 15.383789 L 43.289062 15.383789 L 43.289062 14.610352 L 45.861816 14.610352 Z " fill="rgb(0, 0, 0)" fill-opacity="1.000000" />
<path d="M 14.032227 10.418945 L 17.308594 3.866211 L 20.590332 10.418945 Z " fill="rgb(0, 0, 0)" fill-opacity="1.000000" />
<path d="M 30.449219 13.319336 L 30.449219 -0.699219 L 32.167969 -0.699219 L 32.167969 13.319336 Z " fill="rgb(0, 0, 0)" fill-opacity="1.000000" />
</svg>