<?xml version="1.0" encoding="UTF-8" standalone="no"?><svg xmlns="http://www.w3.org/2000/svg" xmlns:xlink="http://www.w3.org/1999/xlink" contentScriptType="application/ecmascript" contentStyleType="text/css" height="282px" preserveAspectRatio="none" style="width:230px;height:282px;" version="1.1" viewBox="0 0 230 282" width="230px" zoomAndPan="magnify"><defs/><g><polygon fill="#000000" points="96.4732,20.4324,95.0074,22.4353,93.2736,25.3688,90.794,27.3458,88.1883,28.4269,86.1107,28.5207,83.4404,27.1687,80.9209,26.2854,79.0085,24.492,78.0053,22.4389,77.4104,20.8041,76.8276,18.6688,75.8816,16.8313,76.6086,15.0373,77.2455,13.072,79.6355,11.5177,81.3171,9.501,83.3984,8.8313,85.8727,8.2546,89.0456,8.5972,90.7835,9.4168,92.8041,9.7884,95.2609,12.3054,96.1173,14.9627,96.4894,16.7758,96.068,19.7635" style="stroke: none; stroke-width: 1.0;"/><polygon fill="#FEFECE" points="57.918,89,57.918,89.2102,67.418,88.5857,76.918,89.1933,86.418,89.3997,95.918,88.2866,105.418,88.9223,114.918,89,114.8636,88.8687,116.6368,89.6141,118.4448,90.4435,120.1331,90.9838,122.0597,92.0994,123.7568,92.6612,123.5627,92.5808,124.4282,94.4037,125.3543,96.2518,125.9271,97.9535,126.7068,99.7409,127.418,101.5,127.4074,101.5,127.4775,106.5,127.4977,111.5,127.6132,116.5,127.6417,121.5,127.418,126.5,127.6272,126.5866,126.7642,128.3002,126.0963,130.0947,125.4376,131.8929,124.267,133.4791,123.7568,135.3388,123.8434,135.5478,121.9512,135.9798,120.2894,136.9677,118.3904,137.3831,116.677,138.2467,114.918,139,114.918,139.7416,105.418,138.9513,95.918,139.1053,86.418,139.3386,76.918,139.4162,67.418,138.9961,57.918,139,57.9546,139.0885,56.0772,138.0915,54.4187,137.6231,52.6846,136.9721,50.9036,136.208,49.0792,135.3388,49.268,135.417,48.1982,133.5094,47.4139,131.7201,46.6911,129.9563,46.1321,128.2603,45.418,126.5,45.3525,126.5,45.6451,121.5,45.3598,116.5,45.3036,111.5,45.4941,106.5,45.418,101.5,45.2126,101.4149,45.9904,99.666,47.0823,98.0472,47.7489,96.2523,48.5731,94.5226,49.0792,92.6612,49.0381,92.5621,50.8876,92.0272,52.69,91.3785,54.3222,90.319,56.138,89.7027,57.918,89" style="stroke: #A80036; stroke-width: 1.5;"/><path d="M45.418,119.9531 L45.418,120.2334 L55.668,119.4007 L65.918,120.2108 L76.168,120.486 L86.418,119.0019 L96.668,119.8495 L106.918,119.3845 L117.168,119.4418 L127.418,119.9531 " fill="#FEFECE" style="stroke: #A80036; stroke-width: 1.5;"/><text fill="#000000" font-family="monospace" font-size="18" lengthAdjust="spacingAndGlyphs" textLength="62" x="55.418" y="110.708">Locked</text><polygon fill="#FEFECE" points="47.918,221,47.918,221.2102,57.543,220.5857,67.168,221.1933,76.793,221.3997,86.418,220.2866,96.043,220.9223,105.668,220.5735,115.293,220.6165,124.918,221,124.9093,220.979,126.5976,221.5193,128.5242,222.635,130.1409,223.0026,131.9638,223.868,133.7568,224.6612,133.8899,224.7163,134.4627,226.418,135.2423,228.2054,135.9437,229.9604,136.7407,231.755,137.418,233.5,137.4977,233.5,137.6132,238.5,137.6417,243.5,137.6444,248.5,137.5029,253.5,137.418,258.5,137.5608,258.5591,136.902,260.3573,135.7314,261.9435,135.4303,263.8899,134.3978,265.5332,133.7568,267.3388,133.8249,267.5032,131.9259,267.9186,130.2126,268.7822,128.5481,269.7639,126.6796,270.2528,124.918,271,124.918,271.1053,115.293,271.3386,105.668,271.4162,96.043,270.9961,86.418,271.2872,76.793,270.4276,67.168,271.2844,57.543,271.5482,47.918,271,47.9747,271.1369,46.2284,270.4566,44.3208,269.3868,42.5315,268.6025,40.7677,267.8797,39.0792,267.3388,39.061,267.3313,38.2864,265.546,37.8245,263.8902,36.8287,262.0133,36.0446,260.224,35.418,258.5,35.4941,258.5,35.1957,253.5,35.245,248.5,35.6343,243.5,35.5632,238.5,35.418,233.5,35.6442,233.5937,36.0511,231.6912,36.9808,230.0052,37.7965,228.272,38.2015,226.3687,39.0792,224.6612,39.0669,224.6316,40.863,223.9677,42.6978,223.3974,44.3819,222.4632,46.2092,221.8747,47.918,221" style="stroke: #A80036; stroke-width: 1.5;"/><path d="M35.418,251.9531 L35.418,252.2334 L45.618,251.4007 L55.818,252.2108 L66.018,252.486 L76.218,251.0019 L86.418,251.8495 L96.618,251.3845 L106.818,251.4418 L117.018,251.8622 L127.218,251.0313 L137.418,251.9531 " fill="#FEFECE" style="stroke: #A80036; stroke-width: 1.5;"/><text fill="#000000" font-family="monospace" font-size="18" lengthAdjust="spacingAndGlyphs" textLength="82" x="45.418" y="242.708">Unlocked</text><!--MD5=[272d52b63f8edf95f465f2ca1273060c]
link *start to Locked--><path d="M86.418,28.013 L86.6982,28.013 L85.8656,37.2725 L86.6757,46.532 L86.9509,55.7915 L85.4668,65.051 L86.3144,74.3105 L86.418,83.57 " fill="none" style="stroke: #808080; stroke-width: 2.0;"/><polygon fill="#808080" points="86.418,88.84,86.482,88.8685,87.0918,86.9839,88.0769,85.2662,88.9397,83.4941,89.4007,81.5434,90.418,79.84,90.3997,79.8217,89.5175,80.5395,88.7276,81.3496,88.0019,82.2239,87.055,82.877,86.418,83.84,86.5485,83.9705,85.4694,82.8914,84.7714,82.1934,84.1198,81.5418,83.1978,80.6198,82.418,79.84,82.4388,79.8492,83.2083,81.6357,84.0724,83.4642,84.8908,85.2724,85.7964,87.1193,86.418,88.84" style="stroke: #808080; stroke-width: 2.0;"/><!--MD5=[cba7272a8b87644e48ea145430b6e72a]
link Locked to Unlocked--><path d="M45.0976,133.821 L45.15,133.8983 L42.9214,135.0742 L41.0001,136.7033 L38.9788,138.1848 L36.6283,139.181 L34.7334,140.849 L34.7112,140.8225 L32.6532,142.3421 L30.7069,143.9953 L28.8383,145.7413 L26.702,147.1674 L24.9407,149.0416 L25.1217,149.2083 L23.0078,150.7273 L21.4224,152.7329 L19.9014,154.7979 L18.0053,156.5175 L16.3066,158.4187 L16.332,158.4352 L14.9169,160.5272 L13.6176,162.6945 L12.2625,164.8255 L11.0139,167.0258 L9.418,169 L9.7085,169.0678 L9.0705,171.8176 L8.2451,174.5236 L7.694,177.2937 L7.1558,180.0668 L6.2103,182.7448 L5.9034,182.6524 L7.2745,185.406 L7.6351,187.8552 L8.7639,190.5358 L9.1016,192.9781 L10.0877,195.6158 L10.0637,195.5971 L12.1851,198.1789 L13.7451,200.3239 L15.6364,202.7267 L17.5555,205.1512 L19.274,207.4195 L19.392,207.5619 L21.8166,209.5267 L24.4429,211.7349 L26.7428,213.5494 L29.5296,215.9511 L31.9927,217.9624 " fill="none" style="stroke: #808080; stroke-width: 2.0;"/><polygon fill="#808080" points="36.2677,220.8742,36.3273,220.9111,35.1129,219.127,34.2478,217.5592,33.2689,215.9209,31.9161,214.051,31.0809,212.5018,31.0555,212.497,31.1521,213.5868,31.377,214.7011,31.6912,215.8322,31.6979,216.905,32.1352,218.0595,32.1696,218.2408,30.9845,218.064,29.8998,218.4165,28.8274,218.8336,27.6837,218.8749,26.5774,219.1138,26.5815,219.1362,28.5136,219.4554,30.4642,219.8765,32.4058,220.2485,34.3645,220.7142,36.2677,220.8742" style="stroke: #808080; stroke-width: 2.0;"/><text fill="#000000" font-family="monospace" font-size="18" lengthAdjust="spacingAndGlyphs" textLength="46" x="10.418" y="186.708">Coin/</text><text fill="#000000" font-family="monospace" font-size="18" font-style="italic" lengthAdjust="spacingAndGlyphs" textLength="60" x="56.418" y="186.708">Unlock</text><!--MD5=[a05e0d176c5cf009b445f148a212d7a3]
reverse link Locked to Unlocked--><path d="M109.067,143.319 L109.1482,143.3652 L110.323,145.7154 L111.9738,148.3365 L113.4696,150.8693 L114.4558,153.112 L116.1474,155.7564 L116.1153,155.7436 L117.0254,158.335 L118.0973,160.9908 L119.2816,163.6913 L120.0784,166.2377 L121.418,169 L121.6625,169.0273 L121.4432,171.6909 L121.9379,174.4343 L122.5197,177.1873 L122.5946,179.8838 L122.9362,182.61 L122.9659,182.6158 L122.4015,185.3104 L121.9726,188.0312 L121.4783,190.7394 L121.1088,193.4717 L120.3325,196.1255 L120.6067,196.2427 L119.5089,198.8204 L118.2341,201.3224 L117.2183,203.9351 L116.2146,206.5529 L114.8263,209.0064 L114.5532,208.8387 L113.6454,211.5055 L111.8383,213.62 L110.7149,216.1544 L108.8874,218.2564 L107.637,220.7128 " fill="none" style="stroke: #808080; stroke-width: 2.0;"/><polygon fill="#808080" points="106.224,139.051,106.2931,139.0628,106.4202,140.9692,106.9522,142.9449,107.3524,144.8981,107.319,146.777,107.8858,148.7586,107.8604,148.7536,107.9685,147.6214,108.2047,146.5149,108.5299,145.4261,108.5484,144.276,108.9965,143.2119,109.0327,143.3929,110.0646,143.2281,111.2023,143.5916,112.3528,144.0195,113.4283,144.0725,114.5433,144.3226,114.5554,144.3418,112.8737,143.2593,111.2474,142.2642,109.5944,141.227,107.9923,140.2702,106.224,139.051" style="stroke: #808080; stroke-width: 2.0;"/><text fill="#000000" font-family="monospace" font-size="18" lengthAdjust="spacingAndGlyphs" textLength="47" x="123.418" y="186.708">Push/</text><text fill="#000000" font-family="monospace" font-size="18" font-style="italic" lengthAdjust="spacingAndGlyphs" textLength="41" x="170.418" y="186.708">Lock</text><!--MD5=[4d8b0ec4de576514ca4095610ee14fd0]
link Unlocked to Unlocked--><path d="M137.626,233.6522 L137.6298,233.7455 L140.316,233.577 L143.0242,233.9556 L145.7253,234.1561 L148.4027,233.7706 L151.1129,234.1962 L151.106,234.1623 L153.2883,234.4583 L155.5052,234.9249 L157.746,235.5101 L159.9041,235.6865 L162.1781,236.4355 L162.3461,236.6153 L164.0349,238.1437 L166.2141,240.1971 L168.4531,242.3145 L170.344,244.0592 L172.418,246 L172.44,246.0209 L170.702,247.7814 L169.0641,249.6371 L167.3779,251.4468 L165.7838,253.3442 L163.8896,254.9559 L163.9633,255.2449 L162.0903,255.7263 L160.1697,256.0213 L158.3187,256.5892 L156.471,257.1699 L154.52,257.3454 L154.4926,257.026 L152.2205,257.8452 L149.8583,257.6129 L147.5647,258.18 L145.2004,257.9239 L142.894,258.3425 " fill="none" style="stroke: #808080; stroke-width: 2.0;"/><polygon fill="#808080" points="137.626,258.3478,137.6544,258.4119,139.371,259.0195,141.2539,260.0026,143.0827,260.8634,144.7333,261.3222,146.6306,262.3375,146.6123,262.3192,145.7292,261.4378,144.9384,260.6488,144.2118,259.9242,143.2641,258.978,142.626,258.3421,142.7566,258.4724,143.2764,257.3928,144.1775,256.6937,145.1252,256.041,145.8021,255.1182,146.6214,254.3375,146.6307,254.3583,144.818,255.1298,143.0475,255.996,141.2566,256.8165,139.5046,257.7241,137.626,258.3478" style="stroke: #808080; stroke-width: 2.0;"/><text fill="#000000" font-family="monospace" font-size="18" lengthAdjust="spacingAndGlyphs" textLength="40" x="178.418" y="252.708">Coin</text><!--MD5=[c8927b0c9478cf165d9a82dfd9b72870]
reverse link Locked to Locked--><path d="M132.647,103.882 L132.6513,103.9753 L134.9545,103.8038 L137.2827,104.1793 L139.6027,104.3767 L141.896,103.9883 L144.2263,104.4108 L144.2197,104.3769 L146.0825,104.5973 L147.979,104.9885 L149.8989,105.4985 L151.7382,105.5993 L153.6904,106.2732 L153.8535,106.4575 L155.2502,107.6089 L157.1232,109.2981 L159.0542,111.053 L160.6472,112.4261 L162.418,114 L162.4367,114.0238 L160.3163,115.6331 L158.2811,117.3509 L156.2047,119.0163 L154.2069,120.7817 L151.9531,122.2213 L151.9975,122.5162 L149.7702,122.8547 L147.5144,123.003 L145.3004,123.4297 L143.0884,123.8695 L140.8142,123.8958 L140.813,123.5753 L138.1453,124.2074 L135.4736,123.7841 L132.805,124.1632 L130.1332,123.7159 L127.464,123.946 " fill="none" style="stroke: #808080; stroke-width: 2.0;"/><polygon fill="#808080" points="127.464,104.054,127.4903,104.1189,129.2374,104.6664,131.1388,105.5946,132.99,106.3987,134.6759,106.7953,136.5906,107.7561,136.5729,107.7372,135.6676,106.8791,134.8515,106.1162,134.0975,105.4197,133.1296,104.4948,132.4613,103.8897,132.596,104.0158,133.0812,102.9203,133.9597,102.1929,134.8862,101.5106,135.5336,100.5667,136.3277,99.7604,136.3376,99.7809,134.5503,100.6096,132.8082,101.5314,131.0442,102.4083,129.3219,103.371,127.464,104.054" style="stroke: #808080; stroke-width: 2.0;"/><text fill="#000000" font-family="monospace" font-size="18" lengthAdjust="spacingAndGlyphs" textLength="41" x="168.418" y="120.708">Push</text><!--MD5=[c4a40a27499a071703b18a88a7c0e6a4]
@startuml
skinparam Shadowing false
skinparam BackgroundColor transparent
skinparam handwritten true
skinparam Default {
  FontColor Black
  FontSize  18
  FontStyle plain
  FontName monospace
}

skinparam component {
  BackgroundColor PapayaWhip
  BorderColor Gray
  ArrowThickness 2
  ArrowColor Gray
}

[*] -d-> Locked
Locked -d-> Unlocked : Coin/<i>Unlock</i>
Unlocked -u-> Locked : Push/<i>Lock</i>
Unlocked -r-> Unlocked : Coin
Locked -l-> Locked : Push
@enduml

PlantUML version 1.2019.11(Sun Sep 22 10:02:15 UTC 2019)
(GPL source distribution)
Java Runtime: Java(TM) SE Runtime Environment
JVM: Java HotSpot(TM) 64-Bit Server VM
Java Version: 1.7.0_25-b15
Operating System: Linux
Default Encoding: UTF-8
Language: en
Country: US
--></g></svg>