<svg xmlns="http://www.w3.org/2000/svg" version="1.1" width="498" height="196">
<path d="M 2.878906 169.319336 L 2.878906 162.412109 L 6.729980 162.412109 L 6.729980 163.335938 L 3.738281 163.335938 L 3.738281 169.319336 Z " fill="rgb(0, 0, 0)" fill-opacity="1.000000" />
<path d="M 2.878906 182.319336 L 2.878906 168.300781 L 3.738281 168.300781 L 3.738281 182.319336 Z " fill="rgb(0, 0, 0)" fill-opacity="1.000000" />
<path d="M 2.878906 189.335938 L 2.878906 181.300781 L 3.738281 181.300781 L 3.738281 188.412109 L 6.729980 188.412109 L 6.729980 189.335938 Z " fill="rgb(0, 0, 0)" fill-opacity="1.000000" />
<path d="M 6.892578 189.335938 L 6.892578 188.412109 L 13.729980 188.412109 L 13.729980 189.335938 Z " fill="rgb(0, 0, 0)" fill-opacity="1.000000" />
<path d="M 13.892578 189.335938 L 13.892578 188.412109 L 20.729980 188.412109 L 20.729980 189.335938 Z " fill="rgb(0, 0, 0)" fill-opacity="1.000000" />
<path d="M 20.892578 189.335938 L 20.892578 188.412109 L 27.729980 188.412109 L 27.729980 189.335938 Z " fill="rgb(0, 0, 0)" fill-opacity="1.000000" />
<path d="M 27.892578 189.335938 L 27.892578 188.412109 L 30.878906 188.412109 L 30.878906 181.300781 L 31.738281 181.300781 L 31.738281 189.335938 Z " fill="rgb(0, 0, 0)" fill-opacity="1.000000" />
<path d="M 72.878906 189.335938 L 72.878906 181.300781 L 73.738281 181.300781 L 73.738281 188.412109 L 76.729980 188.412109 L 76.729980 189.335938 Z " fill="rgb(0, 0, 0)" fill-opacity="1.000000" />
<path d="M 76.892578 189.335938 L 76.892578 188.412109 L 83.729980 188.412109 L 83.729980 189.335938 Z " fill="rgb(0, 0, 0)" fill-opacity="1.000000" />
<path d="M 83.892578 189.335938 L 83.892578 188.412109 L 90.729980 188.412109 L 90.729980 189.335938 Z " fill="rgb(0, 0, 0)" fill-opacity="1.000000" />
<path d="M 90.892578 189.335938 L 90.892578 188.412109 L 97.729980 188.412109 L 97.729980 189.335938 Z " fill="rgb(0, 0, 0)" fill-opacity="1.000000" />
<path d="M 97.892578 189.335938 L 97.892578 188.412109 L 100.878906 188.412109 L 100.878906 181.300781 L 101.738281 181.300781 L 101.738281 189.335938 Z " fill="rgb(0, 0, 0)" fill-opacity="1.000000" />
<path d="M 128.878906 189.335938 L 128.878906 181.300781 L 129.738281 181.300781 L 129.738281 188.412109 L 132.729980 188.412109 L 132.729980 189.335938 Z " fill="rgb(0, 0, 0)" fill-opacity="1.000000" />
<path d="M 132.892578 189.335938 L 132.892578 188.412109 L 139.729980 188.412109 L 139.729980 189.335938 Z " fill="rgb(0, 0, 0)" fill-opacity="1.000000" />
<path d="M 139.892578 189.335938 L 139.892578 188.412109 L 146.729980 188.412109 L 146.729980 189.335938 Z " fill="rgb(0, 0, 0)" fill-opacity="1.000000" />
<path d="M 146.892578 189.335938 L 146.892578 188.412109 L 153.729980 188.412109 L 153.729980 189.335938 Z " fill="rgb(0, 0, 0)" fill-opacity="1.000000" />
<path d="M 153.892578 189.335938 L 153.892578 188.412109 L 156.878906 188.412109 L 156.878906 181.300781 L 157.738281 181.300781 L 157.738281 189.335938 Z " fill="rgb(0, 0, 0)" fill-opacity="1.000000" />
<path d="M 261.878906 189.335938 L 261.878906 181.300781 L 262.738281 181.300781 L 262.738281 188.412109 L 265.729980 188.412109 L 265.729980 189.335938 Z " fill="rgb(0, 0, 0)" fill-opacity="1.000000" />
<path d="M 265.892578 189.335938 L 265.892578 188.412109 L 272.729980 188.412109 L 272.729980 189.335938 Z " fill="rgb(0, 0, 0)" fill-opacity="1.000000" />
<path d="M 272.892578 189.335938 L 272.892578 188.412109 L 279.729980 188.412109 L 279.729980 189.335938 Z " fill="rgb(0, 0, 0)" fill-opacity="1.000000" />
<path d="M 279.892578 189.335938 L 279.892578 188.412109 L 286.729980 188.412109 L 286.729980 189.335938 Z " fill="rgb(0, 0, 0)" fill-opacity="1.000000" />
<path d="M 286.892578 189.335938 L 286.892578 188.412109 L 293.729980 188.412109 L 293.729980 189.335938 Z " fill="rgb(0, 0, 0)" fill-opacity="1.000000" />
<path d="M 293.892578 189.335938 L 293.892578 188.412109 L 296.878906 188.412109 L 296.878906 181.300781 L 297.738281 181.300781 L 297.738281 189.335938 Z " fill="rgb(0, 0, 0)" fill-opacity="1.000000" />
<path d="M 338.878906 189.335938 L 338.878906 181.300781 L 339.738281 181.300781 L 339.738281 188.412109 L 342.729980 188.412109 L 342.729980 189.335938 Z " fill="rgb(0, 0, 0)" fill-opacity="1.000000" />
<path d="M 342.892578 189.335938 L 342.892578 188.412109 L 349.729980 188.412109 L 349.729980 189.335938 Z " fill="rgb(0, 0, 0)" fill-opacity="1.000000" />
<path d="M 349.892578 189.335938 L 349.892578 188.412109 L 356.729980 188.412109 L 356.729980 189.335938 Z " fill="rgb(0, 0, 0)" fill-opacity="1.000000" />
<path d="M 356.892578 189.335938 L 356.892578 188.412109 L 363.729980 188.412109 L 363.729980 189.335938 Z " fill="rgb(0, 0, 0)" fill-opacity="1.000000" />
<path d="M 363.892578 189.335938 L 363.892578 188.412109 L 366.878906 188.412109 L 366.878906 181.300781 L 367.738281 181.300781 L 367.738281 189.335938 Z " fill="rgb(0, 0, 0)" fill-opacity="1.000000" />
<path d="M 394.878906 189.335938 L 394.878906 181.300781 L 395.738281 181.300781 L 395.738281 188.412109 L 398.729980 188.412109 L 398.729980 189.335938 Z " fill="rgb(0, 0, 0)" fill-opacity="1.000000" />
<path d="M 398.892578 189.335938 L 398.892578 188.412109 L 405.729980 188.412109 L 405.729980 189.335938 Z " fill="rgb(0, 0, 0)" fill-opacity="1.000000" />
<path d="M 405.892578 189.335938 L 405.892578 188.412109 L 412.729980 188.412109 L 412.729980 189.335938 Z " fill="rgb(0, 0, 0)" fill-opacity="1.000000" />
<path d="M 412.892578 189.335938 L 412.892578 188.412109 L 419.729980 188.412109 L 419.729980 189.335938 Z " fill="rgb(0, 0, 0)" fill-opacity="1.000000" />
<path d="M 419.892578 189.335938 L 419.892578 188.412109 L 422.878906 188.412109 L 422.878906 181.300781 L 423.738281 181.300781 L 423.738281 189.335938 Z " fill="rgb(0, 0, 0)" fill-opacity="1.000000" />
<path d="M 464.878906 189.335938 L 464.878906 181.300781 L 465.738281 181.300781 L 465.738281 188.412109 L 468.729980 188.412109 L 468.729980 189.335938 Z " fill="rgb(0, 0, 0)" fill-opacity="1.000000" />
<path d="M 468.892578 189.335938 L 468.892578 188.412109 L 475.729980 188.412109 L 475.729980 189.335938 Z " fill="rgb(0, 0, 0)" fill-opacity="1.000000" />
<path d="M 475.892578 189.335938 L 475.892578 188.412109 L 482.729980 188.412109 L 482.729980 189.335938 Z " fill="rgb(0, 0, 0)" fill-opacity="1.000000" />
<path d="M 482.892578 189.335938 L 482.892578 188.412109 L 489.729980 188.412109 L 489.729980 189.335938 Z " fill="rgb(0, 0, 0)" fill-opacity="1.000000" />
<path d="M 489.892578 189.335938 L 489.892578 188.412109 L 492.878906 188.412109 L 492.878906 181.300781 L 493.738281 181.300781 L 493.738281 189.335938 Z " fill="rgb(0, 0, 0)" fill-opacity="1.000000" />
<path d="M 20.015625 175.498047 L 20.015625 175.981445 L 15.734863 175.981445 L 15.734863 176.013672 Q 15.691895 177.243652 16.204834 177.780762 Q 16.717773 178.317871 17.652344 178.317871 Q 18.125000 178.317871 18.640625 178.167480 Q 19.156250 178.017090 19.741699 177.710938 L 19.741699 178.693848 Q 19.177734 178.924805 18.654053 179.040283 Q 18.130371 179.155762 17.641602 179.155762 Q 16.239746 179.155762 15.450195 178.315186 Q 14.660645 177.474609 14.660645 175.997559 Q 14.660645 174.558105 15.434082 173.698730 Q 16.207520 172.839355 17.496582 172.839355 Q 18.645996 172.839355 19.309326 173.618164 Q 19.972656 174.396973 20.015625 175.498047 Z M 19.027344 175.208008 Q 18.962891 174.584961 18.573486 174.131104 Q 18.184082 173.677246 17.453613 173.677246 Q 16.739258 173.677246 16.277344 174.149902 Q 15.815430 174.622559 15.772461 175.213379 Z " fill="rgb(0, 0, 0)" fill-opacity="1.000000" />
<path d="M 30.878906 182.319336 L 30.878906 168.300781 L 31.738281 168.300781 L 31.738281 182.319336 Z " fill="rgb(0, 0, 0)" fill-opacity="1.000000" />
<path d="M 72.878906 182.319336 L 72.878906 168.300781 L 73.738281 168.300781 L 73.738281 182.319336 Z " fill="rgb(0, 0, 0)" fill-opacity="1.000000" />
<path d="M 87.630859 173.596680 Q 87.813477 173.209961 88.095459 173.024658 Q 88.377441 172.839355 88.774902 172.839355 Q 89.500000 172.839355 89.798096 173.400635 Q 90.096191 173.961914 90.096191 175.514160 L 90.096191 179.000000 L 89.193848 179.000000 L 89.193848 175.557129 Q 89.193848 174.284180 89.051514 173.975342 Q 88.909180 173.666504 88.533203 173.666504 Q 88.103516 173.666504 87.945068 173.996826 Q 87.786621 174.327148 87.786621 175.557129 L 87.786621 179.000000 L 86.884277 179.000000 L 86.884277 175.557129 Q 86.884277 174.268066 86.731201 173.967285 Q 86.578125 173.666504 86.180664 173.666504 Q 85.788574 173.666504 85.635498 173.996826 Q 85.482422 174.327148 85.482422 175.557129 L 85.482422 179.000000 L 84.585449 179.000000 L 84.585449 172.984375 L 85.482422 172.984375 L 85.482422 173.500000 Q 85.659668 173.177734 85.925537 173.008545 Q 86.191406 172.839355 86.529785 172.839355 Q 86.937988 172.839355 87.209229 173.027344 Q 87.480469 173.215332 87.630859 173.596680 Z " fill="rgb(0, 0, 0)" fill-opacity="1.000000" />
<path d="M 100.878906 182.319336 L 100.878906 168.300781 L 101.738281 168.300781 L 101.738281 182.319336 Z " fill="rgb(0, 0, 0)" fill-opacity="1.000000" />
<path d="M 128.878906 182.319336 L 128.878906 168.300781 L 129.738281 168.300781 L 129.738281 182.319336 Z " fill="rgb(0, 0, 0)" fill-opacity="1.000000" />
<path d="M 144.608398 175.943848 Q 144.608398 174.832031 144.245850 174.254639 Q 143.883301 173.677246 143.190430 173.677246 Q 142.465332 173.677246 142.083984 174.254639 Q 141.702637 174.832031 141.702637 175.943848 Q 141.702637 177.055664 142.086670 177.638428 Q 142.470703 178.221191 143.201172 178.221191 Q 143.883301 178.221191 144.245850 177.635742 Q 144.608398 177.050293 144.608398 175.943848 Z M 145.596680 178.613281 Q 145.596680 179.966797 144.957520 180.665039 Q 144.318359 181.363281 143.077637 181.363281 Q 142.669434 181.363281 142.223633 181.288086 Q 141.777832 181.212891 141.332031 181.067871 L 141.332031 180.090332 Q 141.858398 180.337402 142.288086 180.455566 Q 142.717773 180.573730 143.077637 180.573730 Q 143.877930 180.573730 144.243164 180.138672 Q 144.608398 179.703613 144.608398 178.758301 L 144.608398 178.715332 L 144.608398 178.043945 Q 144.372070 178.548828 143.963867 178.795898 Q 143.555664 179.042969 142.970215 179.042969 Q 141.917480 179.042969 141.289062 178.199707 Q 140.660645 177.356445 140.660645 175.943848 Q 140.660645 174.525879 141.289062 173.682617 Q 141.917480 172.839355 142.970215 172.839355 Q 143.550293 172.839355 143.953125 173.070312 Q 144.355957 173.301270 144.608398 173.784668 L 144.608398 173.005859 L 145.596680 173.005859 Z " fill="rgb(0, 0, 0)" fill-opacity="1.000000" />
<path d="M 156.878906 182.319336 L 156.878906 168.300781 L 157.738281 168.300781 L 157.738281 182.319336 Z " fill="rgb(0, 0, 0)" fill-opacity="1.000000" />
<path d="M 261.878906 182.319336 L 261.878906 168.300781 L 262.738281 168.300781 L 262.738281 182.319336 Z " fill="rgb(0, 0, 0)" fill-opacity="1.000000" />
<path d="M 274.783203 176.019043 Q 274.783203 177.168457 275.145752 177.753906 Q 275.508301 178.339355 276.222656 178.339355 Q 276.937012 178.339355 277.304932 177.751221 Q 277.672852 177.163086 277.672852 176.019043 Q 277.672852 174.875000 277.304932 174.286865 Q 276.937012 173.698730 276.222656 173.698730 Q 275.508301 173.698730 275.145752 174.284180 Q 274.783203 174.869629 274.783203 176.019043 Z M 277.672852 178.253418 Q 277.431152 178.699219 277.020264 178.938232 Q 276.609375 179.177246 276.066895 179.177246 Q 274.987305 179.177246 274.361572 178.342041 Q 273.735840 177.506836 273.735840 176.040527 Q 273.735840 174.547363 274.358887 173.704102 Q 274.981934 172.860840 276.066895 172.860840 Q 276.604004 172.860840 277.014893 173.094482 Q 277.425781 173.328125 277.672852 173.773926 L 277.672852 173.005859 L 278.666504 173.005859 L 278.666504 181.309570 L 277.672852 181.309570 Z " fill="rgb(0, 0, 0)" fill-opacity="1.000000" />
<path d="M 285.698730 178.693848 Q 285.301270 178.924805 284.879639 179.040283 Q 284.458008 179.155762 284.017578 179.155762 Q 282.621094 179.155762 281.834229 178.317871 Q 281.047363 177.479980 281.047363 175.997559 Q 281.047363 174.515137 281.834229 173.677246 Q 282.621094 172.839355 284.017578 172.839355 Q 284.452637 172.839355 284.866211 172.952148 Q 285.279785 173.064941 285.698730 173.301270 L 285.698730 174.337891 Q 285.306641 173.988770 284.911865 173.833008 Q 284.517090 173.677246 284.017578 173.677246 Q 283.088379 173.677246 282.588867 174.278809 Q 282.089355 174.880371 282.089355 175.997559 Q 282.089355 177.109375 282.591553 177.713623 Q 283.093750 178.317871 284.017578 178.317871 Q 284.533203 178.317871 284.941406 178.159424 Q 285.349609 178.000977 285.698730 177.667969 Z " fill="rgb(0, 0, 0)" fill-opacity="1.000000" />
<path d="M 296.878906 182.319336 L 296.878906 168.300781 L 297.738281 168.300781 L 297.738281 182.319336 Z " fill="rgb(0, 0, 0)" fill-opacity="1.000000" />
<path d="M 338.878906 182.319336 L 338.878906 168.300781 L 339.738281 168.300781 L 339.738281 182.319336 Z " fill="rgb(0, 0, 0)" fill-opacity="1.000000" />
<path d="M 354.608398 175.943848 Q 354.608398 174.832031 354.245850 174.254639 Q 353.883301 173.677246 353.190430 173.677246 Q 352.465332 173.677246 352.083984 174.254639 Q 351.702637 174.832031 351.702637 175.943848 Q 351.702637 177.055664 352.086670 177.638428 Q 352.470703 178.221191 353.201172 178.221191 Q 353.883301 178.221191 354.245850 177.635742 Q 354.608398 177.050293 354.608398 175.943848 Z M 355.596680 178.613281 Q 355.596680 179.966797 354.957520 180.665039 Q 354.318359 181.363281 353.077637 181.363281 Q 352.669434 181.363281 352.223633 181.288086 Q 351.777832 181.212891 351.332031 181.067871 L 351.332031 180.090332 Q 351.858398 180.337402 352.288086 180.455566 Q 352.717773 180.573730 353.077637 180.573730 Q 353.877930 180.573730 354.243164 180.138672 Q 354.608398 179.703613 354.608398 178.758301 L 354.608398 178.715332 L 354.608398 178.043945 Q 354.372070 178.548828 353.963867 178.795898 Q 353.555664 179.042969 352.970215 179.042969 Q 351.917480 179.042969 351.289062 178.199707 Q 350.660645 177.356445 350.660645 175.943848 Q 350.660645 174.525879 351.289062 173.682617 Q 351.917480 172.839355 352.970215 172.839355 Q 353.550293 172.839355 353.953125 173.070312 Q 354.355957 173.301270 354.608398 173.784668 L 354.608398 173.005859 L 355.596680 173.005859 Z " fill="rgb(0, 0, 0)" fill-opacity="1.000000" />
<path d="M 366.878906 182.319336 L 366.878906 168.300781 L 367.738281 168.300781 L 367.738281 182.319336 Z " fill="rgb(0, 0, 0)" fill-opacity="1.000000" />
<path d="M 394.878906 182.319336 L 394.878906 168.300781 L 395.738281 168.300781 L 395.738281 182.319336 Z " fill="rgb(0, 0, 0)" fill-opacity="1.000000" />
<path d="M 410.608398 173.752441 L 410.608398 170.642578 L 411.596680 170.642578 L 411.596680 179.000000 L 410.608398 179.000000 L 410.608398 178.242676 Q 410.361328 178.688477 409.950439 178.922119 Q 409.539551 179.155762 409.002441 179.155762 Q 407.912109 179.155762 407.286377 178.309814 Q 406.660645 177.463867 406.660645 175.976074 Q 406.660645 174.509766 407.289062 173.674561 Q 407.917480 172.839355 409.002441 172.839355 Q 409.544922 172.839355 409.958496 173.072998 Q 410.372070 173.306641 410.608398 173.752441 Z M 407.702637 175.997559 Q 407.702637 177.146973 408.067871 177.732422 Q 408.433105 178.317871 409.147461 178.317871 Q 409.861816 178.317871 410.235107 177.727051 Q 410.608398 177.136230 410.608398 175.997559 Q 410.608398 174.853516 410.235107 174.265381 Q 409.861816 173.677246 409.147461 173.677246 Q 408.433105 173.677246 408.067871 174.262695 Q 407.702637 174.848145 407.702637 175.997559 Z " fill="rgb(0, 0, 0)" fill-opacity="1.000000" />
<path d="M 422.878906 182.319336 L 422.878906 168.300781 L 423.738281 168.300781 L 423.738281 182.319336 Z " fill="rgb(0, 0, 0)" fill-opacity="1.000000" />
<path d="M 464.878906 182.319336 L 464.878906 168.300781 L 465.738281 168.300781 L 465.738281 182.319336 Z " fill="rgb(0, 0, 0)" fill-opacity="1.000000" />
<path d="M 479.308594 173.677246 Q 478.556641 173.677246 478.169922 174.262695 Q 477.783203 174.848145 477.783203 175.997559 Q 477.783203 177.141602 478.169922 177.729736 Q 478.556641 178.317871 479.308594 178.317871 Q 480.065918 178.317871 480.452637 177.729736 Q 480.839355 177.141602 480.839355 175.997559 Q 480.839355 174.848145 480.452637 174.262695 Q 480.065918 173.677246 479.308594 173.677246 Z M 479.308594 172.839355 Q 480.560059 172.839355 481.223389 173.650391 Q 481.886719 174.461426 481.886719 175.997559 Q 481.886719 177.539062 481.226074 178.347412 Q 480.565430 179.155762 479.308594 179.155762 Q 478.057129 179.155762 477.396484 178.347412 Q 476.735840 177.539062 476.735840 175.997559 Q 476.735840 174.461426 477.396484 173.650391 Q 478.057129 172.839355 479.308594 172.839355 Z " fill="rgb(0, 0, 0)" fill-opacity="1.000000" />
<path d="M 492.878906 182.319336 L 492.878906 168.300781 L 493.738281 168.300781 L 493.738281 182.319336 Z " fill="rgb(0, 0, 0)" fill-opacity="1.000000" />
<path d="M 6.892578 163.335938 L 6.892578 162.412109 L 13.729980 162.412109 L 13.729980 163.335938 Z " fill="rgb(0, 0, 0)" fill-opacity="1.000000" />
<path d="M 13.892578 163.335938 L 13.892578 162.412109 L 16.878906 162.412109 L 16.878906 155.300781 L 17.738281 155.300781 L 17.738281 162.412109 L 20.729980 162.412109 L 20.729980 163.335938 Z " fill="rgb(0, 0, 0)" fill-opacity="1.000000" />
<path d="M 20.892578 163.335938 L 20.892578 162.412109 L 27.729980 162.412109 L 27.729980 163.335938 Z " fill="rgb(0, 0, 0)" fill-opacity="1.000000" />
<path d="M 30.878906 169.319336 L 30.878906 163.335938 L 27.892578 163.335938 L 27.892578 162.412109 L 31.738281 162.412109 L 31.738281 169.319336 Z " fill="rgb(0, 0, 0)" fill-opacity="1.000000" />
<path d="M 72.878906 169.319336 L 72.878906 162.412109 L 76.729980 162.412109 L 76.729980 163.335938 L 73.738281 163.335938 L 73.738281 169.319336 Z " fill="rgb(0, 0, 0)" fill-opacity="1.000000" />
<path d="M 76.892578 163.335938 L 76.892578 162.412109 L 83.729980 162.412109 L 83.729980 163.335938 Z " fill="rgb(0, 0, 0)" fill-opacity="1.000000" />
<path d="M 83.892578 163.335938 L 83.892578 162.412109 L 86.878906 162.412109 L 86.878906 155.300781 L 87.738281 155.300781 L 87.738281 162.412109 L 90.729980 162.412109 L 90.729980 163.335938 Z " fill="rgb(0, 0, 0)" fill-opacity="1.000000" />
<path d="M 90.892578 163.335938 L 90.892578 162.412109 L 97.729980 162.412109 L 97.729980 163.335938 Z " fill="rgb(0, 0, 0)" fill-opacity="1.000000" />
<path d="M 100.878906 169.319336 L 100.878906 163.335938 L 97.892578 163.335938 L 97.892578 162.412109 L 101.738281 162.412109 L 101.738281 169.319336 Z " fill="rgb(0, 0, 0)" fill-opacity="1.000000" />
<path d="M 128.878906 169.319336 L 128.878906 162.412109 L 132.729980 162.412109 L 132.729980 163.335938 L 129.738281 163.335938 L 129.738281 169.319336 Z " fill="rgb(0, 0, 0)" fill-opacity="1.000000" />
<path d="M 132.892578 163.335938 L 132.892578 162.412109 L 139.729980 162.412109 L 139.729980 163.335938 Z " fill="rgb(0, 0, 0)" fill-opacity="1.000000" />
<path d="M 139.892578 163.335938 L 139.892578 162.412109 L 142.878906 162.412109 L 142.878906 155.300781 L 143.738281 155.300781 L 143.738281 162.412109 L 146.729980 162.412109 L 146.729980 163.335938 Z " fill="rgb(0, 0, 0)" fill-opacity="1.000000" />
<path d="M 146.892578 163.335938 L 146.892578 162.412109 L 153.729980 162.412109 L 153.729980 163.335938 Z " fill="rgb(0, 0, 0)" fill-opacity="1.000000" />
<path d="M 156.878906 169.319336 L 156.878906 163.335938 L 153.892578 163.335938 L 153.892578 162.412109 L 157.738281 162.412109 L 157.738281 169.319336 Z " fill="rgb(0, 0, 0)" fill-opacity="1.000000" />
<path d="M 261.878906 169.319336 L 261.878906 162.412109 L 265.729980 162.412109 L 265.729980 163.335938 L 262.738281 163.335938 L 262.738281 169.319336 Z " fill="rgb(0, 0, 0)" fill-opacity="1.000000" />
<path d="M 265.892578 163.335938 L 265.892578 162.412109 L 272.729980 162.412109 L 272.729980 163.335938 Z " fill="rgb(0, 0, 0)" fill-opacity="1.000000" />
<path d="M 272.892578 163.335938 L 272.892578 162.412109 L 279.729980 162.412109 L 279.729980 163.335938 Z " fill="rgb(0, 0, 0)" fill-opacity="1.000000" />
<path d="M 279.892578 163.335938 L 279.892578 162.412109 L 282.878906 162.412109 L 282.878906 155.300781 L 283.738281 155.300781 L 283.738281 162.412109 L 286.729980 162.412109 L 286.729980 163.335938 Z " fill="rgb(0, 0, 0)" fill-opacity="1.000000" />
<path d="M 286.892578 163.335938 L 286.892578 162.412109 L 293.729980 162.412109 L 293.729980 163.335938 Z " fill="rgb(0, 0, 0)" fill-opacity="1.000000" />
<path d="M 296.878906 169.319336 L 296.878906 163.335938 L 293.892578 163.335938 L 293.892578 162.412109 L 297.738281 162.412109 L 297.738281 169.319336 Z " fill="rgb(0, 0, 0)" fill-opacity="1.000000" />
<path d="M 338.878906 169.319336 L 338.878906 162.412109 L 342.729980 162.412109 L 342.729980 163.335938 L 339.738281 163.335938 L 339.738281 169.319336 Z " fill="rgb(0, 0, 0)" fill-opacity="1.000000" />
<path d="M 342.892578 163.335938 L 342.892578 162.412109 L 349.729980 162.412109 L 349.729980 163.335938 Z " fill="rgb(0, 0, 0)" fill-opacity="1.000000" />
<path d="M 349.892578 163.335938 L 349.892578 162.412109 L 352.878906 162.412109 L 352.878906 155.300781 L 353.738281 155.300781 L 353.738281 162.412109 L 356.729980 162.412109 L 356.729980 163.335938 Z " fill="rgb(0, 0, 0)" fill-opacity="1.000000" />
<path d="M 356.892578 163.335938 L 356.892578 162.412109 L 363.729980 162.412109 L 363.729980 163.335938 Z " fill="rgb(0, 0, 0)" fill-opacity="1.000000" />
<path d="M 366.878906 169.319336 L 366.878906 163.335938 L 363.892578 163.335938 L 363.892578 162.412109 L 367.738281 162.412109 L 367.738281 169.319336 Z " fill="rgb(0, 0, 0)" fill-opacity="1.000000" />
<path d="M 394.878906 169.319336 L 394.878906 162.412109 L 398.729980 162.412109 L 398.729980 163.335938 L 395.738281 163.335938 L 395.738281 169.319336 Z " fill="rgb(0, 0, 0)" fill-opacity="1.000000" />
<path d="M 398.892578 163.335938 L 398.892578 162.412109 L 405.729980 162.412109 L 405.729980 163.335938 Z " fill="rgb(0, 0, 0)" fill-opacity="1.000000" />
<path d="M 405.892578 163.335938 L 405.892578 162.412109 L 408.878906 162.412109 L 408.878906 155.300781 L 409.738281 155.300781 L 409.738281 162.412109 L 412.729980 162.412109 L 412.729980 163.335938 Z " fill="rgb(0, 0, 0)" fill-opacity="1.000000" />
<path d="M 412.892578 163.335938 L 412.892578 162.412109 L 419.729980 162.412109 L 419.729980 163.335938 Z " fill="rgb(0, 0, 0)" fill-opacity="1.000000" />
<path d="M 422.878906 169.319336 L 422.878906 163.335938 L 419.892578 163.335938 L 419.892578 162.412109 L 423.738281 162.412109 L 423.738281 169.319336 Z " fill="rgb(0, 0, 0)" fill-opacity="1.000000" />
<path d="M 464.878906 169.319336 L 464.878906 162.412109 L 468.729980 162.412109 L 468.729980 163.335938 L 465.738281 163.335938 L 465.738281 169.319336 Z " fill="rgb(0, 0, 0)" fill-opacity="1.000000" />
<path d="M 468.892578 163.335938 L 468.892578 162.412109 L 475.729980 162.412109 L 475.729980 163.335938 Z " fill="rgb(0, 0, 0)" fill-opacity="1.000000" />
<path d="M 475.892578 163.335938 L 475.892578 162.412109 L 478.878906 162.412109 L 478.878906 155.300781 L 479.738281 155.300781 L 479.738281 162.412109 L 482.729980 162.412109 L 482.729980 163.335938 Z " fill="rgb(0, 0, 0)" fill-opacity="1.000000" />
<path d="M 482.892578 163.335938 L 482.892578 162.412109 L 489.729980 162.412109 L 489.729980 163.335938 Z " fill="rgb(0, 0, 0)" fill-opacity="1.000000" />
<path d="M 492.878906 169.319336 L 492.878906 163.335938 L 489.892578 163.335938 L 489.892578 162.412109 L 493.738281 162.412109 L 493.738281 169.319336 Z " fill="rgb(0, 0, 0)" fill-opacity="1.000000" />
<path d="M 16.878906 156.319336 L 16.878906 149.412109 L 20.729980 149.412109 L 20.729980 150.335938 L 17.738281 150.335938 L 17.738281 156.319336 Z " fill="rgb(0, 0, 0)" fill-opacity="1.000000" />
<path d="M 20.892578 150.335938 L 20.892578 149.412109 L 27.729980 149.412109 L 27.729980 150.335938 Z " fill="rgb(0, 0, 0)" fill-opacity="1.000000" />
<path d="M 27.892578 150.335938 L 27.892578 149.412109 L 34.729980 149.412109 L 34.729980 150.335938 Z " fill="rgb(0, 0, 0)" fill-opacity="1.000000" />
<path d="M 34.892578 150.335938 L 34.892578 149.412109 L 41.729980 149.412109 L 41.729980 150.335938 Z " fill="rgb(0, 0, 0)" fill-opacity="1.000000" />
<path d="M 41.892578 150.335938 L 41.892578 149.412109 L 48.729980 149.412109 L 48.729980 150.335938 Z " fill="rgb(0, 0, 0)" fill-opacity="1.000000" />
<path d="M 48.892578 150.335938 L 48.892578 149.412109 L 51.878906 149.412109 L 51.878906 142.300781 L 52.738281 142.300781 L 52.738281 149.412109 L 55.729980 149.412109 L 55.729980 150.335938 Z " fill="rgb(0, 0, 0)" fill-opacity="1.000000" />
<path d="M 55.892578 150.335938 L 55.892578 149.412109 L 62.729980 149.412109 L 62.729980 150.335938 Z " fill="rgb(0, 0, 0)" fill-opacity="1.000000" />
<path d="M 62.892578 150.335938 L 62.892578 149.412109 L 69.729980 149.412109 L 69.729980 150.335938 Z " fill="rgb(0, 0, 0)" fill-opacity="1.000000" />
<path d="M 69.892578 150.335938 L 69.892578 149.412109 L 76.729980 149.412109 L 76.729980 150.335938 Z " fill="rgb(0, 0, 0)" fill-opacity="1.000000" />
<path d="M 76.892578 150.335938 L 76.892578 149.412109 L 83.729980 149.412109 L 83.729980 150.335938 Z " fill="rgb(0, 0, 0)" fill-opacity="1.000000" />
<path d="M 86.878906 156.319336 L 86.878906 150.335938 L 83.892578 150.335938 L 83.892578 149.412109 L 87.738281 149.412109 L 87.738281 156.319336 Z " fill="rgb(0, 0, 0)" fill-opacity="1.000000" />
<path d="M 142.878906 156.319336 L 142.878906 149.412109 L 146.729980 149.412109 L 146.729980 150.335938 L 143.738281 150.335938 L 143.738281 156.319336 Z " fill="rgb(0, 0, 0)" fill-opacity="1.000000" />
<path d="M 146.892578 150.335938 L 146.892578 149.412109 L 153.729980 149.412109 L 153.729980 150.335938 Z " fill="rgb(0, 0, 0)" fill-opacity="1.000000" />
<path d="M 153.892578 150.335938 L 153.892578 149.412109 L 160.729980 149.412109 L 160.729980 150.335938 Z " fill="rgb(0, 0, 0)" fill-opacity="1.000000" />
<path d="M 160.892578 150.335938 L 160.892578 149.412109 L 167.729980 149.412109 L 167.729980 150.335938 Z " fill="rgb(0, 0, 0)" fill-opacity="1.000000" />
<path d="M 167.892578 150.335938 L 167.892578 149.412109 L 174.729980 149.412109 L 174.729980 150.335938 Z " fill="rgb(0, 0, 0)" fill-opacity="1.000000" />
<path d="M 174.892578 150.335938 L 174.892578 149.412109 L 177.878906 149.412109 L 177.878906 142.300781 L 178.738281 142.300781 L 178.738281 150.335938 Z " fill="rgb(0, 0, 0)" fill-opacity="1.000000" />
<path d="M 282.878906 156.319336 L 282.878906 149.412109 L 286.729980 149.412109 L 286.729980 150.335938 L 283.738281 150.335938 L 283.738281 156.319336 Z " fill="rgb(0, 0, 0)" fill-opacity="1.000000" />
<path d="M 286.892578 150.335938 L 286.892578 149.412109 L 293.729980 149.412109 L 293.729980 150.335938 Z " fill="rgb(0, 0, 0)" fill-opacity="1.000000" />
<path d="M 293.892578 150.335938 L 293.892578 149.412109 L 300.729980 149.412109 L 300.729980 150.335938 Z " fill="rgb(0, 0, 0)" fill-opacity="1.000000" />
<path d="M 300.892578 150.335938 L 300.892578 149.412109 L 307.729980 149.412109 L 307.729980 150.335938 Z " fill="rgb(0, 0, 0)" fill-opacity="1.000000" />
<path d="M 307.892578 150.335938 L 307.892578 149.412109 L 314.729980 149.412109 L 314.729980 150.335938 Z " fill="rgb(0, 0, 0)" fill-opacity="1.000000" />
<path d="M 314.892578 150.335938 L 314.892578 149.412109 L 317.878906 149.412109 L 317.878906 142.300781 L 318.738281 142.300781 L 318.738281 149.412109 L 321.729980 149.412109 L 321.729980 150.335938 Z " fill="rgb(0, 0, 0)" fill-opacity="1.000000" />
<path d="M 321.892578 150.335938 L 321.892578 149.412109 L 328.729980 149.412109 L 328.729980 150.335938 Z " fill="rgb(0, 0, 0)" fill-opacity="1.000000" />
<path d="M 328.892578 150.335938 L 328.892578 149.412109 L 335.729980 149.412109 L 335.729980 150.335938 Z " fill="rgb(0, 0, 0)" fill-opacity="1.000000" />
<path d="M 335.892578 150.335938 L 335.892578 149.412109 L 342.729980 149.412109 L 342.729980 150.335938 Z " fill="rgb(0, 0, 0)" fill-opacity="1.000000" />
<path d="M 342.892578 150.335938 L 342.892578 149.412109 L 349.729980 149.412109 L 349.729980 150.335938 Z " fill="rgb(0, 0, 0)" fill-opacity="1.000000" />
<path d="M 352.878906 156.319336 L 352.878906 150.335938 L 349.892578 150.335938 L 349.892578 149.412109 L 353.738281 149.412109 L 353.738281 156.319336 Z " fill="rgb(0, 0, 0)" fill-opacity="1.000000" />
<path d="M 408.878906 156.319336 L 408.878906 149.412109 L 412.729980 149.412109 L 412.729980 150.335938 L 409.738281 150.335938 L 409.738281 156.319336 Z " fill="rgb(0, 0, 0)" fill-opacity="1.000000" />
<path d="M 412.892578 150.335938 L 412.892578 149.412109 L 419.729980 149.412109 L 419.729980 150.335938 Z " fill="rgb(0, 0, 0)" fill-opacity="1.000000" />
<path d="M 419.892578 150.335938 L 419.892578 149.412109 L 426.729980 149.412109 L 426.729980 150.335938 Z " fill="rgb(0, 0, 0)" fill-opacity="1.000000" />
<path d="M 426.892578 150.335938 L 426.892578 149.412109 L 433.729980 149.412109 L 433.729980 150.335938 Z " fill="rgb(0, 0, 0)" fill-opacity="1.000000" />
<path d="M 433.892578 150.335938 L 433.892578 149.412109 L 440.729980 149.412109 L 440.729980 150.335938 Z " fill="rgb(0, 0, 0)" fill-opacity="1.000000" />
<path d="M 440.892578 150.335938 L 440.892578 149.412109 L 443.878906 149.412109 L 443.878906 142.300781 L 444.738281 142.300781 L 444.738281 149.412109 L 447.729980 149.412109 L 447.729980 150.335938 Z " fill="rgb(0, 0, 0)" fill-opacity="1.000000" />
<path d="M 447.892578 150.335938 L 447.892578 149.412109 L 454.729980 149.412109 L 454.729980 150.335938 Z " fill="rgb(0, 0, 0)" fill-opacity="1.000000" />
<path d="M 454.892578 150.335938 L 454.892578 149.412109 L 461.729980 149.412109 L 461.729980 150.335938 Z " fill="rgb(0, 0, 0)" fill-opacity="1.000000" />
<path d="M 461.892578 150.335938 L 461.892578 149.412109 L 468.729980 149.412109 L 468.729980 150.335938 Z " fill="rgb(0, 0, 0)" fill-opacity="1.000000" />
<path d="M 468.892578 150.335938 L 468.892578 149.412109 L 475.729980 149.412109 L 475.729980 150.335938 Z " fill="rgb(0, 0, 0)" fill-opacity="1.000000" />
<path d="M 478.878906 156.319336 L 478.878906 150.335938 L 475.892578 150.335938 L 475.892578 149.412109 L 479.738281 149.412109 L 479.738281 156.319336 Z " fill="rgb(0, 0, 0)" fill-opacity="1.000000" />
<path d="M 37.878906 117.319336 L 37.878906 110.412109 L 41.729980 110.412109 L 41.729980 111.335938 L 38.738281 111.335938 L 38.738281 117.319336 Z " fill="rgb(0, 0, 0)" fill-opacity="1.000000" />
<path d="M 37.878906 130.319336 L 37.878906 116.300781 L 38.738281 116.300781 L 38.738281 130.319336 Z " fill="rgb(0, 0, 0)" fill-opacity="1.000000" />
<path d="M 37.878906 137.335938 L 37.878906 129.300781 L 38.738281 129.300781 L 38.738281 136.412109 L 41.729980 136.412109 L 41.729980 137.335938 Z " fill="rgb(0, 0, 0)" fill-opacity="1.000000" />
<path d="M 41.892578 137.335938 L 41.892578 136.412109 L 48.729980 136.412109 L 48.729980 137.335938 Z " fill="rgb(0, 0, 0)" fill-opacity="1.000000" />
<path d="M 51.878906 143.319336 L 51.878906 137.335938 L 48.892578 137.335938 L 48.892578 136.412109 L 55.729980 136.412109 L 55.729980 137.335938 L 52.738281 137.335938 L 52.738281 143.319336 Z " fill="rgb(0, 0, 0)" fill-opacity="1.000000" />
<path d="M 55.892578 137.335938 L 55.892578 136.412109 L 62.729980 136.412109 L 62.729980 137.335938 Z " fill="rgb(0, 0, 0)" fill-opacity="1.000000" />
<path d="M 62.892578 137.335938 L 62.892578 136.412109 L 65.878906 136.412109 L 65.878906 129.300781 L 66.738281 129.300781 L 66.738281 137.335938 Z " fill="rgb(0, 0, 0)" fill-opacity="1.000000" />
<path d="M 156.878906 137.335938 L 156.878906 129.300781 L 157.738281 129.300781 L 157.738281 136.412109 L 160.729980 136.412109 L 160.729980 137.335938 Z " fill="rgb(0, 0, 0)" fill-opacity="1.000000" />
<path d="M 160.892578 137.335938 L 160.892578 136.412109 L 167.729980 136.412109 L 167.729980 137.335938 Z " fill="rgb(0, 0, 0)" fill-opacity="1.000000" />
<path d="M 167.892578 137.335938 L 167.892578 136.412109 L 174.729980 136.412109 L 174.729980 137.335938 Z " fill="rgb(0, 0, 0)" fill-opacity="1.000000" />
<path d="M 177.878906 143.319336 L 177.878906 137.335938 L 174.892578 137.335938 L 174.892578 136.412109 L 181.729980 136.412109 L 181.729980 137.335938 L 178.738281 137.335938 L 178.738281 143.319336 Z " fill="rgb(0, 0, 0)" fill-opacity="1.000000" />
<path d="M 181.892578 137.335938 L 181.892578 136.412109 L 188.729980 136.412109 L 188.729980 137.335938 Z " fill="rgb(0, 0, 0)" fill-opacity="1.000000" />
<path d="M 188.892578 137.335938 L 188.892578 136.412109 L 191.878906 136.412109 L 191.878906 129.300781 L 192.738281 129.300781 L 192.738281 137.335938 Z " fill="rgb(0, 0, 0)" fill-opacity="1.000000" />
<path d="M 303.878906 137.335938 L 303.878906 129.300781 L 304.738281 129.300781 L 304.738281 136.412109 L 307.729980 136.412109 L 307.729980 137.335938 Z " fill="rgb(0, 0, 0)" fill-opacity="1.000000" />
<path d="M 307.892578 137.335938 L 307.892578 136.412109 L 314.729980 136.412109 L 314.729980 137.335938 Z " fill="rgb(0, 0, 0)" fill-opacity="1.000000" />
<path d="M 317.878906 143.319336 L 317.878906 137.335938 L 314.892578 137.335938 L 314.892578 136.412109 L 321.729980 136.412109 L 321.729980 137.335938 L 318.738281 137.335938 L 318.738281 143.319336 Z " fill="rgb(0, 0, 0)" fill-opacity="1.000000" />
<path d="M 321.892578 137.335938 L 321.892578 136.412109 L 328.729980 136.412109 L 328.729980 137.335938 Z " fill="rgb(0, 0, 0)" fill-opacity="1.000000" />
<path d="M 328.892578 137.335938 L 328.892578 136.412109 L 331.878906 136.412109 L 331.878906 129.300781 L 332.738281 129.300781 L 332.738281 137.335938 Z " fill="rgb(0, 0, 0)" fill-opacity="1.000000" />
<path d="M 422.878906 137.335938 L 422.878906 129.300781 L 423.738281 129.300781 L 423.738281 136.412109 L 426.729980 136.412109 L 426.729980 137.335938 Z " fill="rgb(0, 0, 0)" fill-opacity="1.000000" />
<path d="M 426.892578 137.335938 L 426.892578 136.412109 L 433.729980 136.412109 L 433.729980 137.335938 Z " fill="rgb(0, 0, 0)" fill-opacity="1.000000" />
<path d="M 433.892578 137.335938 L 433.892578 136.412109 L 440.729980 136.412109 L 440.729980 137.335938 Z " fill="rgb(0, 0, 0)" fill-opacity="1.000000" />
<path d="M 443.878906 143.319336 L 443.878906 137.335938 L 440.892578 137.335938 L 440.892578 136.412109 L 447.729980 136.412109 L 447.729980 137.335938 L 444.738281 137.335938 L 444.738281 143.319336 Z " fill="rgb(0, 0, 0)" fill-opacity="1.000000" />
<path d="M 447.892578 137.335938 L 447.892578 136.412109 L 454.729980 136.412109 L 454.729980 137.335938 Z " fill="rgb(0, 0, 0)" fill-opacity="1.000000" />
<path d="M 454.892578 137.335938 L 454.892578 136.412109 L 457.878906 136.412109 L 457.878906 129.300781 L 458.738281 129.300781 L 458.738281 137.335938 Z " fill="rgb(0, 0, 0)" fill-opacity="1.000000" />
<path d="M 55.004883 120.984375 L 52.851074 123.863281 L 55.214355 127.000000 L 54.070312 127.000000 L 52.308594 124.588379 L 50.552246 127.000000 L 49.408203 127.000000 L 51.771484 123.863281 L 49.617676 120.984375 L 50.713379 120.984375 L 52.308594 123.159668 L 53.893066 120.984375 Z " fill="rgb(0, 0, 0)" fill-opacity="1.000000" />
<path d="M 65.878906 130.319336 L 65.878906 116.300781 L 66.738281 116.300781 L 66.738281 130.319336 Z " fill="rgb(0, 0, 0)" fill-opacity="1.000000" />
<path d="M 156.878906 130.319336 L 156.878906 116.300781 L 157.738281 116.300781 L 157.738281 130.319336 Z " fill="rgb(0, 0, 0)" fill-opacity="1.000000" />
<path d="M 168.537109 120.984375 L 169.562988 120.984375 L 171.308594 126.033203 L 173.059570 120.984375 L 174.085449 120.984375 L 171.947754 127.000000 L 170.674805 127.000000 Z " fill="rgb(0, 0, 0)" fill-opacity="1.000000" />
<path d="M 176.219238 120.973633 L 180.585938 120.973633 L 180.585938 121.875977 L 177.132324 126.194336 L 180.585938 126.194336 L 180.585938 127.000000 L 176.090332 127.000000 L 176.090332 126.086914 L 179.543945 121.763184 L 176.219238 121.763184 Z " fill="rgb(0, 0, 0)" fill-opacity="1.000000" />
<path d="M 191.878906 130.319336 L 191.878906 116.300781 L 192.738281 116.300781 L 192.738281 130.319336 Z " fill="rgb(0, 0, 0)" fill-opacity="1.000000" />
<path d="M 303.878906 130.319336 L 303.878906 116.300781 L 304.738281 116.300781 L 304.738281 130.319336 Z " fill="rgb(0, 0, 0)" fill-opacity="1.000000" />
<path d="M 319.930664 123.997559 Q 319.930664 122.848145 319.565430 122.262695 Q 319.200195 121.677246 318.485840 121.677246 Q 317.766113 121.677246 317.395508 122.265381 Q 317.024902 122.853516 317.024902 123.997559 Q 317.024902 125.136230 317.395508 125.727051 Q 317.766113 126.317871 318.485840 126.317871 Q 319.200195 126.317871 319.565430 125.732422 Q 319.930664 125.146973 319.930664 123.997559 Z M 317.024902 121.752441 Q 317.261230 121.312012 317.677490 121.075684 Q 318.093750 120.839355 318.641602 120.839355 Q 319.726562 120.839355 320.349609 121.674561 Q 320.972656 122.509766 320.972656 123.976074 Q 320.972656 125.463867 320.346924 126.309814 Q 319.721191 127.155762 318.630859 127.155762 Q 318.093750 127.155762 317.682861 126.922119 Q 317.271973 126.688477 317.024902 126.242676 L 317.024902 127.000000 L 316.036621 127.000000 L 316.036621 118.642578 L 317.024902 118.642578 Z " fill="rgb(0, 0, 0)" fill-opacity="1.000000" />
<path d="M 331.878906 130.319336 L 331.878906 116.300781 L 332.738281 116.300781 L 332.738281 130.319336 Z " fill="rgb(0, 0, 0)" fill-opacity="1.000000" />
<path d="M 422.878906 130.319336 L 422.878906 116.300781 L 423.738281 116.300781 L 423.738281 130.319336 Z " fill="rgb(0, 0, 0)" fill-opacity="1.000000" />
<path d="M 440.203613 122.225098 Q 439.886719 121.978027 439.559082 121.865234 Q 439.231445 121.752441 438.839355 121.752441 Q 437.915527 121.752441 437.426758 122.332520 Q 436.937988 122.912598 436.937988 124.008301 L 436.937988 127.000000 L 435.944336 127.000000 L 435.944336 120.984375 L 436.937988 120.984375 L 436.937988 122.160645 Q 437.185059 121.521484 437.697998 121.180420 Q 438.210938 120.839355 438.914551 120.839355 Q 439.279785 120.839355 439.596680 120.930664 Q 439.913574 121.021973 440.203613 121.215332 Z " fill="rgb(0, 0, 0)" fill-opacity="1.000000" />
<path d="M 443.014160 126.242676 L 443.014160 129.288086 L 442.020508 129.288086 L 442.020508 120.984375 L 443.014160 120.984375 L 443.014160 121.752441 Q 443.261230 121.306641 443.672119 121.072998 Q 444.083008 120.839355 444.620117 120.839355 Q 445.710449 120.839355 446.330811 121.682617 Q 446.951172 122.525879 446.951172 124.019043 Q 446.951172 125.485352 446.328125 126.320557 Q 445.705078 127.155762 444.620117 127.155762 Q 444.072266 127.155762 443.661377 126.922119 Q 443.250488 126.688477 443.014160 126.242676 Z M 445.914551 123.997559 Q 445.914551 122.848145 445.552002 122.262695 Q 445.189453 121.677246 444.475098 121.677246 Q 443.755371 121.677246 443.384766 122.265381 Q 443.014160 122.853516 443.014160 123.997559 Q 443.014160 125.136230 443.384766 125.727051 Q 443.755371 126.317871 444.475098 126.317871 Q 445.189453 126.317871 445.552002 125.732422 Q 445.914551 125.146973 445.914551 123.997559 Z " fill="rgb(0, 0, 0)" fill-opacity="1.000000" />
<path d="M 457.878906 130.319336 L 457.878906 116.300781 L 458.738281 116.300781 L 458.738281 130.319336 Z " fill="rgb(0, 0, 0)" fill-opacity="1.000000" />
<path d="M 41.892578 111.335938 L 41.892578 110.412109 L 48.729980 110.412109 L 48.729980 111.335938 Z " fill="rgb(0, 0, 0)" fill-opacity="1.000000" />
<path d="M 48.892578 111.335938 L 48.892578 110.412109 L 51.878906 110.412109 L 51.878906 103.300781 L 52.738281 103.300781 L 52.738281 110.412109 L 55.729980 110.412109 L 55.729980 111.335938 Z " fill="rgb(0, 0, 0)" fill-opacity="1.000000" />
<path d="M 55.892578 111.335938 L 55.892578 110.412109 L 62.729980 110.412109 L 62.729980 111.335938 Z " fill="rgb(0, 0, 0)" fill-opacity="1.000000" />
<path d="M 65.878906 117.319336 L 65.878906 111.335938 L 62.892578 111.335938 L 62.892578 110.412109 L 66.738281 110.412109 L 66.738281 117.319336 Z " fill="rgb(0, 0, 0)" fill-opacity="1.000000" />
<path d="M 156.878906 117.319336 L 156.878906 110.412109 L 160.729980 110.412109 L 160.729980 111.335938 L 157.738281 111.335938 L 157.738281 117.319336 Z " fill="rgb(0, 0, 0)" fill-opacity="1.000000" />
<path d="M 160.892578 111.335938 L 160.892578 110.412109 L 167.729980 110.412109 L 167.729980 111.335938 Z " fill="rgb(0, 0, 0)" fill-opacity="1.000000" />
<path d="M 167.892578 111.335938 L 167.892578 110.412109 L 174.729980 110.412109 L 174.729980 111.335938 Z " fill="rgb(0, 0, 0)" fill-opacity="1.000000" />
<path d="M 174.892578 111.335938 L 174.892578 110.412109 L 177.878906 110.412109 L 177.878906 103.300781 L 178.738281 103.300781 L 178.738281 110.412109 L 181.729980 110.412109 L 181.729980 111.335938 Z " fill="rgb(0, 0, 0)" fill-opacity="1.000000" />
<path d="M 181.892578 111.335938 L 181.892578 110.412109 L 188.729980 110.412109 L 188.729980 111.335938 Z " fill="rgb(0, 0, 0)" fill-opacity="1.000000" />
<path d="M 191.878906 117.319336 L 191.878906 111.335938 L 188.892578 111.335938 L 188.892578 110.412109 L 192.738281 110.412109 L 192.738281 117.319336 Z " fill="rgb(0, 0, 0)" fill-opacity="1.000000" />
<path d="M 303.878906 117.319336 L 303.878906 110.412109 L 307.729980 110.412109 L 307.729980 111.335938 L 304.738281 111.335938 L 304.738281 117.319336 Z " fill="rgb(0, 0, 0)" fill-opacity="1.000000" />
<path d="M 307.892578 111.335938 L 307.892578 110.412109 L 314.729980 110.412109 L 314.729980 111.335938 Z " fill="rgb(0, 0, 0)" fill-opacity="1.000000" />
<path d="M 314.892578 111.335938 L 314.892578 110.412109 L 317.878906 110.412109 L 317.878906 103.300781 L 318.738281 103.300781 L 318.738281 110.412109 L 321.729980 110.412109 L 321.729980 111.335938 Z " fill="rgb(0, 0, 0)" fill-opacity="1.000000" />
<path d="M 321.892578 111.335938 L 321.892578 110.412109 L 328.729980 110.412109 L 328.729980 111.335938 Z " fill="rgb(0, 0, 0)" fill-opacity="1.000000" />
<path d="M 331.878906 117.319336 L 331.878906 111.335938 L 328.892578 111.335938 L 328.892578 110.412109 L 332.738281 110.412109 L 332.738281 117.319336 Z " fill="rgb(0, 0, 0)" fill-opacity="1.000000" />
<path d="M 422.878906 117.319336 L 422.878906 110.412109 L 426.729980 110.412109 L 426.729980 111.335938 L 423.738281 111.335938 L 423.738281 117.319336 Z " fill="rgb(0, 0, 0)" fill-opacity="1.000000" />
<path d="M 426.892578 111.335938 L 426.892578 110.412109 L 433.729980 110.412109 L 433.729980 111.335938 Z " fill="rgb(0, 0, 0)" fill-opacity="1.000000" />
<path d="M 433.892578 111.335938 L 433.892578 110.412109 L 440.729980 110.412109 L 440.729980 111.335938 Z " fill="rgb(0, 0, 0)" fill-opacity="1.000000" />
<path d="M 440.892578 111.335938 L 440.892578 110.412109 L 443.878906 110.412109 L 443.878906 103.300781 L 444.738281 103.300781 L 444.738281 110.412109 L 447.729980 110.412109 L 447.729980 111.335938 Z " fill="rgb(0, 0, 0)" fill-opacity="1.000000" />
<path d="M 447.892578 111.335938 L 447.892578 110.412109 L 454.729980 110.412109 L 454.729980 111.335938 Z " fill="rgb(0, 0, 0)" fill-opacity="1.000000" />
<path d="M 457.878906 117.319336 L 457.878906 111.335938 L 454.892578 111.335938 L 454.892578 110.412109 L 458.738281 110.412109 L 458.738281 117.319336 Z " fill="rgb(0, 0, 0)" fill-opacity="1.000000" />
<path d="M 51.878906 104.319336 L 51.878906 97.412109 L 55.729980 97.412109 L 55.729980 98.335938 L 52.738281 98.335938 L 52.738281 104.319336 Z " fill="rgb(0, 0, 0)" fill-opacity="1.000000" />
<path d="M 55.892578 98.335938 L 55.892578 97.412109 L 62.729980 97.412109 L 62.729980 98.335938 Z " fill="rgb(0, 0, 0)" fill-opacity="1.000000" />
<path d="M 62.892578 98.335938 L 62.892578 97.412109 L 69.729980 97.412109 L 69.729980 98.335938 Z " fill="rgb(0, 0, 0)" fill-opacity="1.000000" />
<path d="M 69.892578 98.335938 L 69.892578 97.412109 L 76.729980 97.412109 L 76.729980 98.335938 Z " fill="rgb(0, 0, 0)" fill-opacity="1.000000" />
<path d="M 76.892578 98.335938 L 76.892578 97.412109 L 83.729980 97.412109 L 83.729980 98.335938 Z " fill="rgb(0, 0, 0)" fill-opacity="1.000000" />
<path d="M 83.892578 98.335938 L 83.892578 97.412109 L 90.729980 97.412109 L 90.729980 98.335938 Z " fill="rgb(0, 0, 0)" fill-opacity="1.000000" />
<path d="M 90.892578 98.335938 L 90.892578 97.412109 L 97.729980 97.412109 L 97.729980 98.335938 Z " fill="rgb(0, 0, 0)" fill-opacity="1.000000" />
<path d="M 97.892578 98.335938 L 97.892578 97.412109 L 104.729980 97.412109 L 104.729980 98.335938 Z " fill="rgb(0, 0, 0)" fill-opacity="1.000000" />
<path d="M 104.892578 98.335938 L 104.892578 97.412109 L 111.729980 97.412109 L 111.729980 98.335938 Z " fill="rgb(0, 0, 0)" fill-opacity="1.000000" />
<path d="M 111.892578 98.335938 L 111.892578 97.412109 L 114.878906 97.412109 L 114.878906 90.300781 L 115.738281 90.300781 L 115.738281 97.412109 L 118.729980 97.412109 L 118.729980 98.335938 Z " fill="rgb(0, 0, 0)" fill-opacity="1.000000" />
<path d="M 118.892578 98.335938 L 118.892578 97.412109 L 125.729980 97.412109 L 125.729980 98.335938 Z " fill="rgb(0, 0, 0)" fill-opacity="1.000000" />
<path d="M 125.892578 98.335938 L 125.892578 97.412109 L 132.729980 97.412109 L 132.729980 98.335938 Z " fill="rgb(0, 0, 0)" fill-opacity="1.000000" />
<path d="M 132.892578 98.335938 L 132.892578 97.412109 L 139.729980 97.412109 L 139.729980 98.335938 Z " fill="rgb(0, 0, 0)" fill-opacity="1.000000" />
<path d="M 139.892578 98.335938 L 139.892578 97.412109 L 146.729980 97.412109 L 146.729980 98.335938 Z " fill="rgb(0, 0, 0)" fill-opacity="1.000000" />
<path d="M 146.892578 98.335938 L 146.892578 97.412109 L 153.729980 97.412109 L 153.729980 98.335938 Z " fill="rgb(0, 0, 0)" fill-opacity="1.000000" />
<path d="M 153.892578 98.335938 L 153.892578 97.412109 L 160.729980 97.412109 L 160.729980 98.335938 Z " fill="rgb(0, 0, 0)" fill-opacity="1.000000" />
<path d="M 160.892578 98.335938 L 160.892578 97.412109 L 167.729980 97.412109 L 167.729980 98.335938 Z " fill="rgb(0, 0, 0)" fill-opacity="1.000000" />
<path d="M 167.892578 98.335938 L 167.892578 97.412109 L 174.729980 97.412109 L 174.729980 98.335938 Z " fill="rgb(0, 0, 0)" fill-opacity="1.000000" />
<path d="M 177.878906 104.319336 L 177.878906 98.335938 L 174.892578 98.335938 L 174.892578 97.412109 L 178.738281 97.412109 L 178.738281 104.319336 Z " fill="rgb(0, 0, 0)" fill-opacity="1.000000" />
<path d="M 317.878906 104.319336 L 317.878906 97.412109 L 321.729980 97.412109 L 321.729980 98.335938 L 318.738281 98.335938 L 318.738281 104.319336 Z " fill="rgb(0, 0, 0)" fill-opacity="1.000000" />
<path d="M 321.892578 98.335938 L 321.892578 97.412109 L 328.729980 97.412109 L 328.729980 98.335938 Z " fill="rgb(0, 0, 0)" fill-opacity="1.000000" />
<path d="M 328.892578 98.335938 L 328.892578 97.412109 L 335.729980 97.412109 L 335.729980 98.335938 Z " fill="rgb(0, 0, 0)" fill-opacity="1.000000" />
<path d="M 335.892578 98.335938 L 335.892578 97.412109 L 342.729980 97.412109 L 342.729980 98.335938 Z " fill="rgb(0, 0, 0)" fill-opacity="1.000000" />
<path d="M 342.892578 98.335938 L 342.892578 97.412109 L 349.729980 97.412109 L 349.729980 98.335938 Z " fill="rgb(0, 0, 0)" fill-opacity="1.000000" />
<path d="M 349.892578 98.335938 L 349.892578 97.412109 L 356.729980 97.412109 L 356.729980 98.335938 Z " fill="rgb(0, 0, 0)" fill-opacity="1.000000" />
<path d="M 356.892578 98.335938 L 356.892578 97.412109 L 363.729980 97.412109 L 363.729980 98.335938 Z " fill="rgb(0, 0, 0)" fill-opacity="1.000000" />
<path d="M 363.892578 98.335938 L 363.892578 97.412109 L 370.729980 97.412109 L 370.729980 98.335938 Z " fill="rgb(0, 0, 0)" fill-opacity="1.000000" />
<path d="M 370.892578 98.335938 L 370.892578 97.412109 L 377.729980 97.412109 L 377.729980 98.335938 Z " fill="rgb(0, 0, 0)" fill-opacity="1.000000" />
<path d="M 377.892578 98.335938 L 377.892578 97.412109 L 380.878906 97.412109 L 380.878906 90.300781 L 381.738281 90.300781 L 381.738281 97.412109 L 384.729980 97.412109 L 384.729980 98.335938 Z " fill="rgb(0, 0, 0)" fill-opacity="1.000000" />
<path d="M 384.892578 98.335938 L 384.892578 97.412109 L 391.729980 97.412109 L 391.729980 98.335938 Z " fill="rgb(0, 0, 0)" fill-opacity="1.000000" />
<path d="M 391.892578 98.335938 L 391.892578 97.412109 L 398.729980 97.412109 L 398.729980 98.335938 Z " fill="rgb(0, 0, 0)" fill-opacity="1.000000" />
<path d="M 398.892578 98.335938 L 398.892578 97.412109 L 405.729980 97.412109 L 405.729980 98.335938 Z " fill="rgb(0, 0, 0)" fill-opacity="1.000000" />
<path d="M 405.892578 98.335938 L 405.892578 97.412109 L 412.729980 97.412109 L 412.729980 98.335938 Z " fill="rgb(0, 0, 0)" fill-opacity="1.000000" />
<path d="M 412.892578 98.335938 L 412.892578 97.412109 L 419.729980 97.412109 L 419.729980 98.335938 Z " fill="rgb(0, 0, 0)" fill-opacity="1.000000" />
<path d="M 419.892578 98.335938 L 419.892578 97.412109 L 426.729980 97.412109 L 426.729980 98.335938 Z " fill="rgb(0, 0, 0)" fill-opacity="1.000000" />
<path d="M 426.892578 98.335938 L 426.892578 97.412109 L 433.729980 97.412109 L 433.729980 98.335938 Z " fill="rgb(0, 0, 0)" fill-opacity="1.000000" />
<path d="M 433.892578 98.335938 L 433.892578 97.412109 L 440.729980 97.412109 L 440.729980 98.335938 Z " fill="rgb(0, 0, 0)" fill-opacity="1.000000" />
<path d="M 443.878906 104.319336 L 443.878906 98.335938 L 440.892578 98.335938 L 440.892578 97.412109 L 444.738281 97.412109 L 444.738281 104.319336 Z " fill="rgb(0, 0, 0)" fill-opacity="1.000000" />
<path d="M 100.878906 65.319336 L 100.878906 58.412109 L 104.729980 58.412109 L 104.729980 59.335938 L 101.738281 59.335938 L 101.738281 65.319336 Z " fill="rgb(0, 0, 0)" fill-opacity="1.000000" />
<path d="M 100.878906 78.319336 L 100.878906 64.300781 L 101.738281 64.300781 L 101.738281 78.319336 Z " fill="rgb(0, 0, 0)" fill-opacity="1.000000" />
<path d="M 100.878906 85.335938 L 100.878906 77.300781 L 101.738281 77.300781 L 101.738281 84.412109 L 104.729980 84.412109 L 104.729980 85.335938 Z " fill="rgb(0, 0, 0)" fill-opacity="1.000000" />
<path d="M 104.892578 85.335938 L 104.892578 84.412109 L 111.729980 84.412109 L 111.729980 85.335938 Z " fill="rgb(0, 0, 0)" fill-opacity="1.000000" />
<path d="M 114.878906 91.319336 L 114.878906 85.335938 L 111.892578 85.335938 L 111.892578 84.412109 L 118.729980 84.412109 L 118.729980 85.335938 L 115.738281 85.335938 L 115.738281 91.319336 Z " fill="rgb(0, 0, 0)" fill-opacity="1.000000" />
<path d="M 118.892578 85.335938 L 118.892578 84.412109 L 125.729980 84.412109 L 125.729980 85.335938 Z " fill="rgb(0, 0, 0)" fill-opacity="1.000000" />
<path d="M 125.892578 85.335938 L 125.892578 84.412109 L 128.878906 84.412109 L 128.878906 77.300781 L 129.738281 77.300781 L 129.738281 85.335938 Z " fill="rgb(0, 0, 0)" fill-opacity="1.000000" />
<path d="M 366.878906 85.335938 L 366.878906 77.300781 L 367.738281 77.300781 L 367.738281 84.412109 L 370.729980 84.412109 L 370.729980 85.335938 Z " fill="rgb(0, 0, 0)" fill-opacity="1.000000" />
<path d="M 370.892578 85.335938 L 370.892578 84.412109 L 377.729980 84.412109 L 377.729980 85.335938 Z " fill="rgb(0, 0, 0)" fill-opacity="1.000000" />
<path d="M 380.878906 91.319336 L 380.878906 85.335938 L 377.892578 85.335938 L 377.892578 84.412109 L 384.729980 84.412109 L 384.729980 85.335938 L 381.738281 85.335938 L 381.738281 91.319336 Z " fill="rgb(0, 0, 0)" fill-opacity="1.000000" />
<path d="M 384.892578 85.335938 L 384.892578 84.412109 L 391.729980 84.412109 L 391.729980 85.335938 Z " fill="rgb(0, 0, 0)" fill-opacity="1.000000" />
<path d="M 391.892578 85.335938 L 391.892578 84.412109 L 394.878906 84.412109 L 394.878906 77.300781 L 395.738281 77.300781 L 395.738281 85.335938 Z " fill="rgb(0, 0, 0)" fill-opacity="1.000000" />
<path d="M 115.222656 75.107422 L 115.222656 69.752441 L 113.520020 69.752441 L 113.520020 68.984375 L 116.210938 68.984375 L 116.210938 75.107422 Q 116.210938 76.154785 115.730225 76.721436 Q 115.249512 77.288086 114.363281 77.288086 L 112.999023 77.288086 L 112.999023 76.450195 L 114.255859 76.450195 Q 114.739258 76.450195 114.980957 76.114502 Q 115.222656 75.778809 115.222656 75.107422 Z M 115.222656 66.642578 L 116.210938 66.642578 L 116.210938 67.894043 L 115.222656 67.894043 Z " fill="rgb(0, 0, 0)" fill-opacity="1.000000" />
<path d="M 128.878906 78.319336 L 128.878906 64.300781 L 129.738281 64.300781 L 129.738281 78.319336 Z " fill="rgb(0, 0, 0)" fill-opacity="1.000000" />
<path d="M 366.878906 78.319336 L 366.878906 64.300781 L 367.738281 64.300781 L 367.738281 78.319336 Z " fill="rgb(0, 0, 0)" fill-opacity="1.000000" />
<path d="M 381.861816 72.824707 Q 381.861816 73.490723 382.106201 73.829102 Q 382.350586 74.167480 382.828613 74.167480 L 383.983398 74.167480 L 383.983398 75.000000 L 382.731934 75.000000 Q 381.845703 75.000000 381.359619 74.433350 Q 380.873535 73.866699 380.873535 72.824707 L 380.873535 67.383789 L 379.289062 67.383789 L 379.289062 66.610352 L 381.861816 66.610352 Z " fill="rgb(0, 0, 0)" fill-opacity="1.000000" />
<path d="M 394.878906 78.319336 L 394.878906 64.300781 L 395.738281 64.300781 L 395.738281 78.319336 Z " fill="rgb(0, 0, 0)" fill-opacity="1.000000" />
<path d="M 104.892578 59.335938 L 104.892578 58.412109 L 111.729980 58.412109 L 111.729980 59.335938 Z " fill="rgb(0, 0, 0)" fill-opacity="1.000000" />
<path d="M 111.892578 59.335938 L 111.892578 58.412109 L 114.878906 58.412109 L 114.878906 51.300781 L 115.738281 51.300781 L 115.738281 58.412109 L 118.729980 58.412109 L 118.729980 59.335938 Z " fill="rgb(0, 0, 0)" fill-opacity="1.000000" />
<path d="M 118.892578 59.335938 L 118.892578 58.412109 L 125.729980 58.412109 L 125.729980 59.335938 Z " fill="rgb(0, 0, 0)" fill-opacity="1.000000" />
<path d="M 128.878906 65.319336 L 128.878906 59.335938 L 125.892578 59.335938 L 125.892578 58.412109 L 129.738281 58.412109 L 129.738281 65.319336 Z " fill="rgb(0, 0, 0)" fill-opacity="1.000000" />
<path d="M 366.878906 65.319336 L 366.878906 58.412109 L 370.729980 58.412109 L 370.729980 59.335938 L 367.738281 59.335938 L 367.738281 65.319336 Z " fill="rgb(0, 0, 0)" fill-opacity="1.000000" />
<path d="M 370.892578 59.335938 L 370.892578 58.412109 L 377.729980 58.412109 L 377.729980 59.335938 Z " fill="rgb(0, 0, 0)" fill-opacity="1.000000" />
<path d="M 377.892578 59.335938 L 377.892578 58.412109 L 380.878906 58.412109 L 380.878906 51.300781 L 381.738281 51.300781 L 381.738281 58.412109 L 384.729980 58.412109 L 384.729980 59.335938 Z " fill="rgb(0, 0, 0)" fill-opacity="1.000000" />
<path d="M 384.892578 59.335938 L 384.892578 58.412109 L 391.729980 58.412109 L 391.729980 59.335938 Z " fill="rgb(0, 0, 0)" fill-opacity="1.000000" />
<path d="M 394.878906 65.319336 L 394.878906 59.335938 L 391.892578 59.335938 L 391.892578 58.412109 L 395.738281 58.412109 L 395.738281 65.319336 Z " fill="rgb(0, 0, 0)" fill-opacity="1.000000" />
<path d="M 114.878906 52.319336 L 114.878906 45.412109 L 118.729980 45.412109 L 118.729980 46.335938 L 115.738281 46.335938 L 115.738281 52.319336 Z " fill="rgb(0, 0, 0)" fill-opacity="1.000000" />
<path d="M 118.892578 46.335938 L 118.892578 45.412109 L 125.729980 45.412109 L 125.729980 46.335938 Z " fill="rgb(0, 0, 0)" fill-opacity="1.000000" />
<path d="M 125.892578 46.335938 L 125.892578 45.412109 L 132.729980 45.412109 L 132.729980 46.335938 Z " fill="rgb(0, 0, 0)" fill-opacity="1.000000" />
<path d="M 132.892578 46.335938 L 132.892578 45.412109 L 139.729980 45.412109 L 139.729980 46.335938 Z " fill="rgb(0, 0, 0)" fill-opacity="1.000000" />
<path d="M 139.892578 46.335938 L 139.892578 45.412109 L 146.729980 45.412109 L 146.729980 46.335938 Z " fill="rgb(0, 0, 0)" fill-opacity="1.000000" />
<path d="M 146.892578 46.335938 L 146.892578 45.412109 L 153.729980 45.412109 L 153.729980 46.335938 Z " fill="rgb(0, 0, 0)" fill-opacity="1.000000" />
<path d="M 153.892578 46.335938 L 153.892578 45.412109 L 160.729980 45.412109 L 160.729980 46.335938 Z " fill="rgb(0, 0, 0)" fill-opacity="1.000000" />
<path d="M 160.892578 46.335938 L 160.892578 45.412109 L 167.729980 45.412109 L 167.729980 46.335938 Z " fill="rgb(0, 0, 0)" fill-opacity="1.000000" />
<path d="M 167.892578 46.335938 L 167.892578 45.412109 L 174.729980 45.412109 L 174.729980 46.335938 Z " fill="rgb(0, 0, 0)" fill-opacity="1.000000" />
<path d="M 174.892578 46.335938 L 174.892578 45.412109 L 181.729980 45.412109 L 181.729980 46.335938 Z " fill="rgb(0, 0, 0)" fill-opacity="1.000000" />
<path d="M 181.892578 46.335938 L 181.892578 45.412109 L 188.729980 45.412109 L 188.729980 46.335938 Z " fill="rgb(0, 0, 0)" fill-opacity="1.000000" />
<path d="M 188.892578 46.335938 L 188.892578 45.412109 L 195.729980 45.412109 L 195.729980 46.335938 Z " fill="rgb(0, 0, 0)" fill-opacity="1.000000" />
<path d="M 195.892578 46.335938 L 195.892578 45.412109 L 202.729980 45.412109 L 202.729980 46.335938 Z " fill="rgb(0, 0, 0)" fill-opacity="1.000000" />
<path d="M 202.892578 46.335938 L 202.892578 45.412109 L 209.729980 45.412109 L 209.729980 46.335938 Z " fill="rgb(0, 0, 0)" fill-opacity="1.000000" />
<path d="M 209.892578 46.335938 L 209.892578 45.412109 L 216.729980 45.412109 L 216.729980 46.335938 Z " fill="rgb(0, 0, 0)" fill-opacity="1.000000" />
<path d="M 216.892578 46.335938 L 216.892578 45.412109 L 223.729980 45.412109 L 223.729980 46.335938 Z " fill="rgb(0, 0, 0)" fill-opacity="1.000000" />
<path d="M 223.892578 46.335938 L 223.892578 45.412109 L 230.729980 45.412109 L 230.729980 46.335938 Z " fill="rgb(0, 0, 0)" fill-opacity="1.000000" />
<path d="M 230.892578 46.335938 L 230.892578 45.412109 L 237.729980 45.412109 L 237.729980 46.335938 Z " fill="rgb(0, 0, 0)" fill-opacity="1.000000" />
<path d="M 237.892578 46.335938 L 237.892578 45.412109 L 244.729980 45.412109 L 244.729980 46.335938 Z " fill="rgb(0, 0, 0)" fill-opacity="1.000000" />
<path d="M 244.892578 46.335938 L 244.892578 45.412109 L 247.878906 45.412109 L 247.878906 38.300781 L 248.738281 38.300781 L 248.738281 45.412109 L 251.729980 45.412109 L 251.729980 46.335938 Z " fill="rgb(0, 0, 0)" fill-opacity="1.000000" />
<path d="M 251.892578 46.335938 L 251.892578 45.412109 L 258.729980 45.412109 L 258.729980 46.335938 Z " fill="rgb(0, 0, 0)" fill-opacity="1.000000" />
<path d="M 258.892578 46.335938 L 258.892578 45.412109 L 265.729980 45.412109 L 265.729980 46.335938 Z " fill="rgb(0, 0, 0)" fill-opacity="1.000000" />
<path d="M 265.892578 46.335938 L 265.892578 45.412109 L 272.729980 45.412109 L 272.729980 46.335938 Z " fill="rgb(0, 0, 0)" fill-opacity="1.000000" />
<path d="M 272.892578 46.335938 L 272.892578 45.412109 L 279.729980 45.412109 L 279.729980 46.335938 Z " fill="rgb(0, 0, 0)" fill-opacity="1.000000" />
<path d="M 279.892578 46.335938 L 279.892578 45.412109 L 286.729980 45.412109 L 286.729980 46.335938 Z " fill="rgb(0, 0, 0)" fill-opacity="1.000000" />
<path d="M 286.892578 46.335938 L 286.892578 45.412109 L 293.729980 45.412109 L 293.729980 46.335938 Z " fill="rgb(0, 0, 0)" fill-opacity="1.000000" />
<path d="M 293.892578 46.335938 L 293.892578 45.412109 L 300.729980 45.412109 L 300.729980 46.335938 Z " fill="rgb(0, 0, 0)" fill-opacity="1.000000" />
<path d="M 300.892578 46.335938 L 300.892578 45.412109 L 307.729980 45.412109 L 307.729980 46.335938 Z " fill="rgb(0, 0, 0)" fill-opacity="1.000000" />
<path d="M 307.892578 46.335938 L 307.892578 45.412109 L 314.729980 45.412109 L 314.729980 46.335938 Z " fill="rgb(0, 0, 0)" fill-opacity="1.000000" />
<path d="M 314.892578 46.335938 L 314.892578 45.412109 L 321.729980 45.412109 L 321.729980 46.335938 Z " fill="rgb(0, 0, 0)" fill-opacity="1.000000" />
<path d="M 321.892578 46.335938 L 321.892578 45.412109 L 328.729980 45.412109 L 328.729980 46.335938 Z " fill="rgb(0, 0, 0)" fill-opacity="1.000000" />
<path d="M 328.892578 46.335938 L 328.892578 45.412109 L 335.729980 45.412109 L 335.729980 46.335938 Z " fill="rgb(0, 0, 0)" fill-opacity="1.000000" />
<path d="M 335.892578 46.335938 L 335.892578 45.412109 L 342.729980 45.412109 L 342.729980 46.335938 Z " fill="rgb(0, 0, 0)" fill-opacity="1.000000" />
<path d="M 342.892578 46.335938 L 342.892578 45.412109 L 349.729980 45.412109 L 349.729980 46.335938 Z " fill="rgb(0, 0, 0)" fill-opacity="1.000000" />
<path d="M 349.892578 46.335938 L 349.892578 45.412109 L 356.729980 45.412109 L 356.729980 46.335938 Z " fill="rgb(0, 0, 0)" fill-opacity="1.000000" />
<path d="M 356.892578 46.335938 L 356.892578 45.412109 L 363.729980 45.412109 L 363.729980 46.335938 Z " fill="rgb(0, 0, 0)" fill-opacity="1.000000" />
<path d="M 363.892578 46.335938 L 363.892578 45.412109 L 370.729980 45.412109 L 370.729980 46.335938 Z " fill="rgb(0, 0, 0)" fill-opacity="1.000000" />
<path d="M 370.892578 46.335938 L 370.892578 45.412109 L 377.729980 45.412109 L 377.729980 46.335938 Z " fill="rgb(0, 0, 0)" fill-opacity="1.000000" />
<path d="M 380.878906 52.319336 L 380.878906 46.335938 L 377.892578 46.335938 L 377.892578 45.412109 L 381.738281 45.412109 L 381.738281 52.319336 Z " fill="rgb(0, 0, 0)" fill-opacity="1.000000" />
<path d="M 233.878906 13.319336 L 233.878906 6.412109 L 237.729980 6.412109 L 237.729980 7.335938 L 234.738281 7.335938 L 234.738281 13.319336 Z " fill="rgb(0, 0, 0)" fill-opacity="1.000000" />
<path d="M 233.878906 26.319336 L 233.878906 12.300781 L 234.738281 12.300781 L 234.738281 26.319336 Z " fill="rgb(0, 0, 0)" fill-opacity="1.000000" />
<path d="M 233.878906 33.335938 L 233.878906 25.300781 L 234.738281 25.300781 L 234.738281 32.412109 L 237.729980 32.412109 L 237.729980 33.335938 Z " fill="rgb(0, 0, 0)" fill-opacity="1.000000" />
<path d="M 237.892578 33.335938 L 237.892578 32.412109 L 244.729980 32.412109 L 244.729980 33.335938 Z " fill="rgb(0, 0, 0)" fill-opacity="1.000000" />
<path d="M 247.878906 39.319336 L 247.878906 33.335938 L 244.892578 33.335938 L 244.892578 32.412109 L 251.729980 32.412109 L 251.729980 33.335938 L 248.738281 33.335938 L 248.738281 39.319336 Z " fill="rgb(0, 0, 0)" fill-opacity="1.000000" />
<path d="M 251.892578 33.335938 L 251.892578 32.412109 L 258.729980 32.412109 L 258.729980 33.335938 Z " fill="rgb(0, 0, 0)" fill-opacity="1.000000" />
<path d="M 258.892578 33.335938 L 258.892578 32.412109 L 261.878906 32.412109 L 261.878906 25.300781 L 262.738281 25.300781 L 262.738281 33.335938 Z " fill="rgb(0, 0, 0)" fill-opacity="1.000000" />
<path d="M 251.203613 18.225098 Q 250.886719 17.978027 250.559082 17.865234 Q 250.231445 17.752441 249.839355 17.752441 Q 248.915527 17.752441 248.426758 18.332520 Q 247.937988 18.912598 247.937988 20.008301 L 247.937988 23.000000 L 246.944336 23.000000 L 246.944336 16.984375 L 247.937988 16.984375 L 247.937988 18.160645 Q 248.185059 17.521484 248.697998 17.180420 Q 249.210938 16.839355 249.914551 16.839355 Q 250.279785 16.839355 250.596680 16.930664 Q 250.913574 17.021973 251.203613 17.215332 Z " fill="rgb(0, 0, 0)" fill-opacity="1.000000" />
<path d="M 261.878906 26.319336 L 261.878906 12.300781 L 262.738281 12.300781 L 262.738281 26.319336 Z " fill="rgb(0, 0, 0)" fill-opacity="1.000000" />
<path d="M 237.892578 7.335938 L 237.892578 6.412109 L 244.729980 6.412109 L 244.729980 7.335938 Z " fill="rgb(0, 0, 0)" fill-opacity="1.000000" />
<path d="M 244.892578 7.335938 L 244.892578 6.412109 L 251.729980 6.412109 L 251.729980 7.335938 Z " fill="rgb(0, 0, 0)" fill-opacity="1.000000" />
<path d="M 251.892578 7.335938 L 251.892578 6.412109 L 258.729980 6.412109 L 258.729980 7.335938 Z " fill="rgb(0, 0, 0)" fill-opacity="1.000000" />
<path d="M 261.878906 13.319336 L 261.878906 7.335938 L 258.892578 7.335938 L 258.892578 6.412109 L 262.738281 6.412109 L 262.738281 13.319336 Z " fill="rgb(0, 0, 0)" fill-opacity="1.000000" />
</svg>